<svg width="52" height="52" viewBox="0 0 52 52" fill="none" xmlns="http://www.w3.org/2000/svg">
<path d="M39.4955 25.0033C40.2113 25.9396 40.2113 27.2035 39.4955 28.1383C37.2409 31.0815 31.8317 37.1416 25.5164 37.1416C19.2011 37.1416 13.7919 31.0815 11.5373 28.1383C11.189 27.69 11 27.1385 11 26.5708C11 26.0031 11.189 25.4516 11.5373 25.0033C13.7919 22.0601 19.2011 16 25.5164 16C31.8317 16 37.2409 22.0601 39.4955 25.0033Z" stroke="#02A9F7" stroke-width="2" stroke-linecap="round" stroke-linejoin="round"/>
<path d="M25.5147 31.0997C28.0168 31.0997 30.0451 29.0714 30.0451 26.5694C30.0451 24.0674 28.0168 22.0391 25.5147 22.0391C23.0127 22.0391 20.9844 24.0674 20.9844 26.5694C20.9844 29.0714 23.0127 31.0997 25.5147 31.0997Z" stroke="#02A9F7" stroke-width="2" stroke-linecap="round" stroke-linejoin="round"/>
<path d="M11 1H6C4.67392 1 3.40215 1.52678 2.46447 2.46447C1.52678 3.40215 1 4.67392 1 6V11" stroke="#111111" strokeWidth="2" strokeLinecap="round" strokeLinejoin="round"/>
<path d="M41 51H46C47.3261 51 48.5979 50.4732 49.5355 49.5355C50.4732 48.5979 51 47.3261 51 46V41" stroke="#111111" strokeWidth="2" strokeLinecap="round" strokeLinejoin="round"/>
<path d="M51 11V6C51 4.67392 50.4732 3.40215 49.5355 2.46447C48.5979 1.52678 47.3261 1 46 1H41" stroke="#111111" strokeWidth="2" strokeLinecap="round" strokeLinejoin="round"/>
<path d="M1 41V46C1 47.3261 1.52678 48.5979 2.46447 49.5355C3.40215 50.4732 4.67392 51 6 51H11" stroke="#111111" strokeWidth="2" strokeLinecap="round" strokeLinejoin="round"/>
</svg>
