<svg width="66" height="66" viewBox="0 0 66 66" fill="none" xmlns="http://www.w3.org/2000/svg">
<g clip-path="url(#clip0_2150_4545)">
<mask id="mask0_2150_4545" style="mask-type:luminance" maskUnits="userSpaceOnUse" x="0" y="0" width="66" height="66">
<path d="M54.6299 0H10.926C4.89173 0 0 4.89173 0 10.926V54.6299C0 60.6642 4.89173 65.5559 10.926 65.5559H54.6299C60.6642 65.5559 65.5559 60.6642 65.5559 54.6299V10.926C65.5559 4.89173 60.6642 0 54.6299 0Z" fill="white"/>
</mask>
<g mask="url(#mask0_2150_4545)">
<path d="M0 0H65.5559V65.5559H0V0Z" fill="#02A9F7"/>
<path d="M56.606 27.6991C53.4711 24.8437 50.2962 22.0182 47.471 18.8654C44.1165 15.1079 40.2526 11.8262 36.8184 8.1381C34.6718 5.83796 30.2392 6.22463 28.3022 8.1381C21.4535 14.9195 14.6147 21.7009 7.79581 28.512C7.46637 28.8492 7.20679 29.3448 7.00711 29.8902C6.31825 31.7837 6.43804 33.8954 7.21678 35.7594C7.47634 36.3839 7.8058 36.9689 8.21513 37.3754C15.034 44.0874 21.7829 50.8589 28.6317 57.5312C29.9695 58.8399 31.7266 59.2861 33.7235 58.82C35.5005 58.4037 36.7585 57.4123 37.9964 56.163C41.0015 53.1293 44.1064 50.1848 47.1515 47.1906C50.3262 44.0577 53.4812 40.9049 56.646 37.772C57.9337 36.493 58.7724 34.9662 58.9621 33.2014C59.2018 31.0103 58.2733 29.2357 56.606 27.7089V27.6991Z" fill="#333333"/>
<path d="M23.5979 37.6609C23.2597 37.6609 22.9315 37.6161 22.6135 37.5263C22.2997 37.4326 22.0471 37.3124 21.8555 37.1655L22.1918 36.4197C22.3751 36.5543 22.5932 36.6623 22.8458 36.7438C23.0986 36.8253 23.3512 36.866 23.6041 36.866C23.8853 36.866 24.0931 36.8253 24.2277 36.7438C24.3621 36.6581 24.4294 36.546 24.4294 36.4075C24.4294 36.3057 24.3888 36.222 24.307 36.1569C24.2297 36.0876 24.1279 36.0325 24.0016 35.9917C23.8792 35.951 23.712 35.9062 23.5 35.8573C23.174 35.7797 22.907 35.7023 22.6992 35.625C22.4914 35.5474 22.312 35.4231 22.1612 35.252C22.0143 35.0809 21.9411 34.8525 21.9411 34.5671C21.9411 34.3185 22.0082 34.0945 22.1428 33.8947C22.2772 33.6909 22.4791 33.5298 22.7481 33.4116C23.0213 33.2934 23.3534 33.2344 23.7446 33.2344C24.0177 33.2344 24.2848 33.2669 24.5457 33.3323C24.8064 33.3974 25.0347 33.4911 25.2303 33.6135L24.9246 34.3654C24.5293 34.1412 24.134 34.0291 23.7385 34.0291C23.4614 34.0291 23.2555 34.0739 23.1211 34.1637C22.9907 34.2533 22.9253 34.3716 22.9253 34.5182C22.9253 34.665 23.0007 34.7752 23.1515 34.8484C23.3064 34.9176 23.5409 34.9871 23.8547 35.0564C24.1807 35.1338 24.4478 35.2111 24.6556 35.2887C24.8636 35.366 25.0408 35.4884 25.1875 35.6556C25.3385 35.8225 25.4138 36.0489 25.4138 36.3341C25.4138 36.5786 25.3446 36.8028 25.2058 37.0067C25.0714 37.2064 24.8675 37.3653 24.5946 37.4835C24.3215 37.6017 23.9893 37.6609 23.5979 37.6609Z" fill="white"/>
<path d="M27.5871 37.6334C27.2406 37.6334 26.9287 37.5619 26.6516 37.4194C26.3785 37.2726 26.1646 37.0709 26.0096 36.8141C25.8547 36.5572 25.7773 36.2659 25.7773 35.9398C25.7773 35.6136 25.8547 35.3223 26.0096 35.0655C26.1646 34.8086 26.3785 34.6088 26.6516 34.4664C26.9287 34.3195 27.2406 34.2461 27.5871 34.2461C27.9335 34.2461 28.2433 34.3195 28.5165 34.4664C28.7894 34.6088 29.0036 34.8086 29.1583 35.0655C29.3132 35.3223 29.3908 35.6136 29.3908 35.9398C29.3908 36.2659 29.3132 36.5572 29.1583 36.8141C29.0036 37.0709 28.7894 37.2726 28.5165 37.4194C28.2433 37.5619 27.9335 37.6334 27.5871 37.6334ZM27.5871 36.8508C27.8316 36.8508 28.0314 36.7691 28.1863 36.6061C28.3452 36.4392 28.4247 36.2169 28.4247 35.9398C28.4247 35.6625 28.3452 35.4425 28.1863 35.2795C28.0314 35.1123 27.8316 35.0288 27.5871 35.0288C27.3426 35.0288 27.1407 35.1123 26.9818 35.2795C26.8227 35.4425 26.7434 35.6625 26.7434 35.9398C26.7434 36.2169 26.8227 36.4392 26.9818 36.6061C27.1407 36.7691 27.3426 36.8508 27.5871 36.8508Z" fill="white"/>
<path d="M31.0698 34.3695H31.9135V35.103H31.0941V37.5854H30.1404V35.103H29.6328V34.3695H30.1404V34.2226C30.1404 33.8476 30.2503 33.5502 30.4706 33.3302C30.6946 33.1099 31.0086 33 31.412 33C31.5547 33 31.6893 33.0162 31.8156 33.0487C31.9461 33.0774 32.054 33.1202 32.1397 33.1772L31.889 33.8682C31.7789 33.7906 31.6506 33.7519 31.5038 33.7519C31.2145 33.7519 31.0698 33.911 31.0698 34.2287V34.3695Z" fill="white"/>
<path d="M35.001 37.4244C34.9073 37.4936 34.7913 37.5465 34.6525 37.5832C34.5181 37.6158 34.3754 37.6322 34.2246 37.6322C33.8333 37.6322 33.5297 37.5323 33.3136 37.3326C33.1017 37.1329 32.9957 36.8394 32.9957 36.4522V35.1009H32.4883V34.3673H32.9957V33.5664H33.9495V34.3673H34.7688V35.1009H33.9495V36.4399C33.9495 36.5785 33.984 36.6864 34.0535 36.764C34.1267 36.8374 34.2288 36.8739 34.359 36.8739C34.51 36.8739 34.6383 36.8333 34.7443 36.7518L35.001 37.4244Z" fill="white"/>
<path d="M40.9411 29.0121C40.589 30.5035 39.9977 31.9193 39.446 33.3456C38.7074 35.2604 37.7771 37.0836 36.8993 38.9279C36.2267 40.3384 35.4541 41.7072 34.7262 43.0944C34.6814 43.1752 34.6447 43.2668 34.5133 43.2589C34.5133 43.2589 33.0757 43.3372 32.3635 43.1936C31.746 43.0655 31.2915 42.7076 31.0391 42.1355C30.5529 41.049 30.0931 39.9466 29.6121 38.8547C29.5123 38.6248 29.5754 38.5725 29.8066 38.5725C30.7686 38.5778 31.7329 38.5621 32.6974 38.583C33.1808 38.5883 33.5514 38.8234 33.7564 39.2806C33.9168 39.6359 34.0743 39.9962 34.2609 40.4247C34.5867 39.8918 34.8837 39.4294 35.1335 38.9384C35.843 37.5643 36.4632 36.1538 36.9546 34.6962C37.4671 33.1889 37.8927 31.6608 37.8034 30.0387C37.7509 29.0669 37.4671 28.1579 37.0833 27.2775C36.9599 26.9928 37.023 26.8804 37.2936 26.7629C38.0689 26.4128 38.7941 25.9583 39.6088 25.6788C40.4603 25.3914 40.8886 25.6502 41.1303 26.5122C41.3722 27.3793 41.1329 28.197 40.9411 29.0173V29.0121Z" fill="white"/>
<path d="M30.5661 32.3971C30.0054 32.3997 29.4475 32.3997 28.8868 32.3997C28.326 32.3997 27.7889 32.3868 27.2413 32.4047C27.03 32.41 26.9334 32.3352 26.8578 32.1528C26.4771 31.2396 26.086 30.3288 25.7104 29.4156C25.6739 29.3229 25.614 29.2484 25.5723 29.1636C25.3376 28.6464 25.3376 28.649 24.7952 28.8831C24.1875 29.1507 23.5695 29.4027 22.9697 29.6833C22.7636 29.7783 22.688 29.7244 22.5993 29.5469C22.169 28.703 22.1952 28.6182 22.9697 28.0549C24.0389 27.2804 25.168 26.6015 26.3546 26.015C26.7092 25.8426 27.0872 25.701 27.4681 25.5957C27.948 25.4593 28.5972 25.8168 28.7876 26.3133C29.3249 27.6921 29.8463 29.071 30.3705 30.4523C30.5582 30.9411 30.7409 31.4273 30.9155 31.9185C31.0433 32.271 30.9494 32.3918 30.5661 32.3918V32.3971Z" fill="white"/>
<path fill-rule="evenodd" clip-rule="evenodd" d="M48.2389 30.996L34.5833 17.3404C33.5591 16.3164 31.8988 16.3164 30.8748 17.3404L17.2193 30.996C16.1953 32.02 16.1953 33.6803 17.2193 34.7043L30.8748 48.36C31.8988 49.384 33.5591 49.384 34.5833 48.36L48.2389 34.7043C49.2629 33.6803 49.2629 32.02 48.2389 30.996ZM35.8195 16.1043C34.1127 14.3975 31.3455 14.3975 29.6387 16.1043L15.9832 29.7598C14.2764 31.4667 14.2764 34.2338 15.9832 35.9404L29.6387 49.596C31.3455 51.3028 34.1127 51.3028 35.8195 49.596L49.475 35.9404C51.1817 34.2338 51.1817 31.4667 49.475 29.7598L35.8195 16.1043Z" fill="white"/>
</g>
</g>
<defs>
<clipPath id="clip0_2150_4545">
<rect width="65.5559" height="65.5559" fill="white"/>
</clipPath>
</defs>
</svg>
