<svg width="18" height="18" viewBox="0 0 18 18" fill="none" xmlns="http://www.w3.org/2000/svg">
<path d="M5.80044 13.7997L7.40059 12.1996H9.00073L10.0888 11.1115C11.2011 11.499 12.4119 11.4974 13.5231 11.1071C14.6344 10.7168 15.5802 9.96083 16.2059 8.96293C16.8315 7.96504 17.0999 6.78432 16.9671 5.61404C16.8343 4.44375 16.3081 3.3532 15.4748 2.52089C14.6414 1.68858 13.5502 1.1638 12.3798 1.03245C11.2093 0.901096 10.0289 1.17095 9.03181 1.79783C8.0347 2.42472 7.27991 3.37151 6.891 4.48325C6.50208 5.59499 6.50206 6.80582 6.89094 7.91757L1 13.7997V17H4.20029L5.80044 15.3999V13.7997Z" stroke="#02A9F7" stroke-width="2" stroke-linecap="round" stroke-linejoin="round"/>
</svg>
