<svg width="16" height="18" viewBox="0 0 16 18" fill="none" xmlns="http://www.w3.org/2000/svg">
<path d="M6.50645 1.40228C6.93747 1.13905 7.43068 1 7.93333 1C8.43599 1 8.92919 1.13905 9.36021 1.40228L14.1941 4.35499C14.3992 4.48042 14.569 4.65773 14.6868 4.86969C14.8047 5.08165 14.8666 5.32104 14.8667 5.56459V11.6365C14.8667 12.124 14.7427 12.6032 14.5067 13.0274C14.2707 13.4516 13.9309 13.8063 13.5202 14.0571L9.36021 16.5977C8.92919 16.861 8.43599 17 7.93333 17C7.43068 17 6.93747 16.861 6.50645 16.5977L2.34645 14.0571C1.93579 13.8063 1.59593 13.4516 1.35997 13.0274C1.12401 12.6032 0.999995 12.124 1 11.6365V5.56459C1.00019 5.3209 1.06236 5.08142 1.18046 4.86945C1.29855 4.65748 1.46856 4.48024 1.67392 4.35499L6.50645 1.40228Z" stroke="#02A9F7" stroke-width="2" stroke-linecap="round" stroke-linejoin="round"/>
<path d="M1 5.50029L7.93333 8.98844M7.93333 8.98844L14.8667 5.26562M7.93333 8.98844V16.999" stroke="#02A9F7" stroke-width="2" stroke-linecap="round" stroke-linejoin="round"/>
</svg>
