<svg width="18" height="19" viewBox="0 0 18 19" fill="none" xmlns="http://www.w3.org/2000/svg">
<path d="M12.7419 4.01621L14.7353 6.0087M14.0238 2.2609L8.63362 7.65107C8.35511 7.92919 8.16517 8.28354 8.08773 8.66944L7.58984 11.1617L10.0821 10.6629C10.468 10.5857 10.8219 10.3965 11.1005 10.1179L16.4906 4.72775C16.6526 4.56577 16.7811 4.37348 16.8688 4.16185C16.9564 3.95022 17.0015 3.72339 17.0015 3.49433C17.0015 3.26526 16.9564 3.03843 16.8688 2.8268C16.7811 2.61517 16.6526 2.42288 16.4906 2.2609C16.3287 2.09893 16.1364 1.97044 15.9247 1.88278C15.7131 1.79512 15.4863 1.75 15.2572 1.75C15.0281 1.75 14.8013 1.79512 14.5897 1.88278C14.3781 1.97044 14.1858 2.09893 14.0238 2.2609Z" stroke="#02A9F7" stroke-width="2" stroke-linecap="round" stroke-linejoin="round"/>
<path d="M15.1178 13.0447V15.8682C15.1178 16.3675 14.9195 16.8463 14.5665 17.1993C14.2134 17.5523 13.7347 17.7506 13.2354 17.7506H2.88237C2.38314 17.7506 1.90435 17.5523 1.55133 17.1993C1.19832 16.8463 1 16.3675 1 15.8682V5.51518C1 5.01595 1.19832 4.53716 1.55133 4.18415C1.90435 3.83113 2.38314 3.63281 2.88237 3.63281H5.70593" stroke="#02A9F7" stroke-width="2" stroke-linecap="round" stroke-linejoin="round"/>
</svg>
