<svg width="380" height="352" viewBox="0 0 380 352" fill="none" xmlns="http://www.w3.org/2000/svg">
<g clipPath="url(#clip0_2150_4727)">
<rect width="380" height="352" rx="20" fill="white"/>
<path d="M42.592 54.36C43.472 54.664 44.248 54.744 44.92 54.6C45.592 54.456 46.192 53.968 46.72 53.136L47.536 51.864L47.848 51.528L53.704 40.2H56.776L49.48 53.76C48.888 54.896 48.184 55.76 47.368 56.352C46.552 56.944 45.672 57.272 44.728 57.336C43.8 57.416 42.832 57.24 41.824 56.808L42.592 54.36ZM47.776 54.216L40.288 40.2H43.624L49.48 51.816L47.776 54.216ZM58.1176 57V44.184H61.1176V49.392H67.5736V44.184H70.5736V57H67.5736V51.936H61.1176V57H58.1176ZM74.5941 57V44.184H77.5941V52.632L84.6741 44.184H87.4101V57H84.4101V48.552L77.3541 57H74.5941ZM100.638 57L96.0057 50.856L98.4537 49.344L104.166 57H100.638ZM91.4457 57V44.184H94.4457V57H91.4457ZM93.5577 51.864V49.368H97.9017V51.864H93.5577ZM98.7417 50.952L95.9337 50.616L100.638 44.184H103.854L98.7417 50.952ZM113.823 57V54.408L113.655 53.856V49.32C113.655 48.44 113.391 47.76 112.863 47.28C112.335 46.784 111.535 46.536 110.463 46.536C109.743 46.536 109.031 46.648 108.327 46.872C107.639 47.096 107.055 47.408 106.575 47.808L105.399 45.624C106.087 45.096 106.903 44.704 107.847 44.448C108.807 44.176 109.799 44.04 110.823 44.04C112.679 44.04 114.111 44.488 115.119 45.384C116.143 46.264 116.655 47.632 116.655 49.488V57H113.823ZM109.791 57.168C108.831 57.168 107.991 57.008 107.271 56.688C106.551 56.352 105.991 55.896 105.591 55.32C105.207 54.728 105.015 54.064 105.015 53.328C105.015 52.608 105.183 51.96 105.519 51.384C105.871 50.808 106.439 50.352 107.223 50.016C108.007 49.68 109.047 49.512 110.343 49.512H114.063V51.504H110.559C109.535 51.504 108.847 51.672 108.495 52.008C108.143 52.328 107.967 52.728 107.967 53.208C107.967 53.752 108.183 54.184 108.615 54.504C109.047 54.824 109.647 54.984 110.415 54.984C111.151 54.984 111.807 54.816 112.383 54.48C112.975 54.144 113.399 53.648 113.655 52.992L114.159 54.792C113.871 55.544 113.351 56.128 112.599 56.544C111.863 56.96 110.927 57.168 109.791 57.168ZM118.496 56.976L118.64 54.456C118.752 54.472 118.856 54.488 118.952 54.504C119.048 54.52 119.136 54.528 119.216 54.528C119.712 54.528 120.096 54.376 120.368 54.072C120.64 53.768 120.84 53.36 120.968 52.848C121.112 52.32 121.208 51.736 121.256 51.096C121.32 50.44 121.368 49.784 121.4 49.128L121.616 44.184H131.984V57H128.984V45.912L129.68 46.728H123.584L124.232 45.888L124.064 49.272C124.016 50.408 123.92 51.464 123.776 52.44C123.648 53.4 123.44 54.24 123.152 54.96C122.88 55.68 122.496 56.24 122 56.64C121.52 57.04 120.904 57.24 120.152 57.24C119.912 57.24 119.648 57.216 119.36 57.168C119.088 57.12 118.8 57.056 118.496 56.976ZM142.456 48.408C144.104 48.408 145.36 48.776 146.224 49.512C147.088 50.248 147.52 51.288 147.52 52.632C147.52 54.024 147.04 55.112 146.08 55.896C145.12 56.664 143.768 57.04 142.024 57.024L136.024 57V44.184H139.024V48.384L142.456 48.408ZM141.76 54.816C142.64 54.832 143.312 54.648 143.776 54.264C144.24 53.88 144.472 53.32 144.472 52.584C144.472 51.848 144.24 51.32 143.776 51C143.328 50.664 142.656 50.488 141.76 50.472L139.024 50.448V54.792L141.76 54.816ZM150.157 57V44.184H153.157V49.392H159.613V44.184H162.613V57H159.613V51.936H153.157V57H150.157ZM172.345 57.168C171.033 57.168 169.865 56.888 168.841 56.328C167.817 55.752 167.009 54.968 166.417 53.976C165.825 52.984 165.529 51.856 165.529 50.592C165.529 49.312 165.825 48.184 166.417 47.208C167.009 46.216 167.817 45.44 168.841 44.88C169.865 44.32 171.033 44.04 172.345 44.04C173.673 44.04 174.849 44.32 175.873 44.88C176.913 45.44 177.721 46.208 178.297 47.184C178.889 48.16 179.185 49.296 179.185 50.592C179.185 51.856 178.889 52.984 178.297 53.976C177.721 54.968 176.913 55.752 175.873 56.328C174.849 56.888 173.673 57.168 172.345 57.168ZM172.345 54.6C173.081 54.6 173.737 54.44 174.313 54.12C174.889 53.8 175.337 53.336 175.657 52.728C175.993 52.12 176.161 51.408 176.161 50.592C176.161 49.76 175.993 49.048 175.657 48.456C175.337 47.848 174.889 47.384 174.313 47.064C173.737 46.744 173.089 46.584 172.369 46.584C171.633 46.584 170.977 46.744 170.401 47.064C169.841 47.384 169.393 47.848 169.057 48.456C168.721 49.048 168.553 49.76 168.553 50.592C168.553 51.408 168.721 52.12 169.057 52.728C169.393 53.336 169.841 53.8 170.401 54.12C170.977 54.44 171.625 54.6 172.345 54.6ZM187.981 57.168C186.637 57.168 185.437 56.888 184.381 56.328C183.341 55.752 182.525 54.968 181.933 53.976C181.341 52.984 181.045 51.856 181.045 50.592C181.045 49.312 181.341 48.184 181.933 47.208C182.525 46.216 183.341 45.44 184.381 44.88C185.437 44.32 186.637 44.04 187.981 44.04C189.229 44.04 190.325 44.296 191.269 44.808C192.229 45.304 192.957 46.04 193.453 47.016L191.149 48.36C190.765 47.752 190.293 47.304 189.733 47.016C189.189 46.728 188.597 46.584 187.957 46.584C187.221 46.584 186.557 46.744 185.965 47.064C185.373 47.384 184.909 47.848 184.573 48.456C184.237 49.048 184.069 49.76 184.069 50.592C184.069 51.424 184.237 52.144 184.573 52.752C184.909 53.344 185.373 53.8 185.965 54.12C186.557 54.44 187.221 54.6 187.957 54.6C188.597 54.6 189.189 54.456 189.733 54.168C190.293 53.88 190.765 53.432 191.149 52.824L193.453 54.168C192.957 55.128 192.229 55.872 191.269 56.4C190.325 56.912 189.229 57.168 187.981 57.168ZM198.641 57V46.008L199.337 46.728H194.129V44.184H206.129V46.728H200.945L201.641 46.008V57H198.641ZM214.737 48.408C216.385 48.408 217.641 48.776 218.505 49.512C219.369 50.248 219.801 51.288 219.801 52.632C219.801 54.024 219.321 55.112 218.361 55.896C217.401 56.664 216.049 57.04 214.305 57.024L208.305 57V44.184H211.305V48.384L214.737 48.408ZM214.041 54.816C214.921 54.832 215.593 54.648 216.057 54.264C216.521 53.88 216.753 53.32 216.753 52.584C216.753 51.848 216.521 51.32 216.057 51C215.609 50.664 214.937 50.488 214.041 50.472L211.305 50.448V54.792L214.041 54.816Z" fill="#111111"/>
<path d="M41.962 90V77.4H51.466V78.93H43.744V82.53H47.668C49.168 82.53 50.308 82.842 51.088 83.466C51.868 84.09 52.258 84.996 52.258 86.184C52.258 87.408 51.832 88.35 50.98 89.01C50.14 89.67 48.934 90 47.362 90H41.962ZM43.744 88.578H47.29C48.334 88.578 49.12 88.38 49.648 87.984C50.188 87.588 50.458 87 50.458 86.22C50.458 84.708 49.402 83.952 47.29 83.952H43.744V88.578ZM53.0275 89.982L53.1355 88.524C53.2195 88.536 53.2975 88.548 53.3695 88.56C53.4415 88.572 53.5075 88.578 53.5675 88.578C53.9515 88.578 54.2515 88.446 54.4675 88.182C54.6955 87.918 54.8635 87.57 54.9715 87.138C55.0795 86.694 55.1575 86.196 55.2055 85.644C55.2535 85.092 55.2895 84.54 55.3135 83.988L55.4755 80.46H62.8015V90H61.0735V81.468L61.4875 81.972H56.5915L56.9875 81.45L56.8615 84.096C56.8255 84.936 56.7595 85.722 56.6635 86.454C56.5675 87.186 56.4175 87.828 56.2135 88.38C56.0215 88.932 55.7515 89.364 55.4035 89.676C55.0675 89.988 54.6295 90.144 54.0895 90.144C53.9335 90.144 53.7655 90.126 53.5855 90.09C53.4175 90.066 53.2315 90.03 53.0275 89.982ZM71.9928 90V87.984L71.9028 87.606V84.168C71.9028 83.436 71.6868 82.872 71.2548 82.476C70.8348 82.068 70.1988 81.864 69.3468 81.864C68.7828 81.864 68.2308 81.96 67.6908 82.152C67.1508 82.332 66.6948 82.578 66.3228 82.89L65.6028 81.594C66.0948 81.198 66.6828 80.898 67.3668 80.694C68.0628 80.478 68.7888 80.37 69.5448 80.37C70.8528 80.37 71.8608 80.688 72.5688 81.324C73.2768 81.96 73.6308 82.932 73.6308 84.24V90H71.9928ZM68.8608 90.108C68.1528 90.108 67.5288 89.988 66.9888 89.748C66.4608 89.508 66.0528 89.178 65.7648 88.758C65.4768 88.326 65.3328 87.84 65.3328 87.3C65.3328 86.784 65.4528 86.316 65.6928 85.896C65.9448 85.476 66.3468 85.14 66.8988 84.888C67.4628 84.636 68.2188 84.51 69.1668 84.51H72.1908V85.752H69.2388C68.3748 85.752 67.7928 85.896 67.4928 86.184C67.1928 86.472 67.0428 86.82 67.0428 87.228C67.0428 87.696 67.2288 88.074 67.6008 88.362C67.9728 88.638 68.4888 88.776 69.1488 88.776C69.7968 88.776 70.3608 88.632 70.8408 88.344C71.3328 88.056 71.6868 87.636 71.9028 87.084L72.2448 88.272C72.0168 88.836 71.6148 89.286 71.0388 89.622C70.4628 89.946 69.7368 90.108 68.8608 90.108ZM76.7424 90V80.46H83.7624V81.972H78.0564L78.4704 81.576V90H76.7424ZM89.1955 90.108C88.2355 90.108 87.3835 89.898 86.6395 89.478C85.8955 89.058 85.3075 88.482 84.8755 87.75C84.4435 87.006 84.2275 86.166 84.2275 85.23C84.2275 84.282 84.4435 83.442 84.8755 82.71C85.3075 81.978 85.8955 81.408 86.6395 81C87.3835 80.58 88.2355 80.37 89.1955 80.37C90.1435 80.37 90.9895 80.58 91.7335 81C92.4895 81.408 93.0775 81.978 93.4975 82.71C93.9295 83.43 94.1455 84.27 94.1455 85.23C94.1455 86.178 93.9295 87.018 93.4975 87.75C93.0775 88.482 92.4895 89.058 91.7335 89.478C90.9895 89.898 90.1435 90.108 89.1955 90.108ZM89.1955 88.596C89.8075 88.596 90.3535 88.458 90.8335 88.182C91.3255 87.906 91.7095 87.516 91.9855 87.012C92.2615 86.496 92.3995 85.902 92.3995 85.23C92.3995 84.546 92.2615 83.958 91.9855 83.466C91.7095 82.962 91.3255 82.572 90.8335 82.296C90.3535 82.02 89.8075 81.882 89.1955 81.882C88.5835 81.882 88.0375 82.02 87.5575 82.296C87.0775 82.572 86.6935 82.962 86.4055 83.466C86.1175 83.958 85.9735 84.546 85.9735 85.23C85.9735 85.902 86.1175 86.496 86.4055 87.012C86.6935 87.516 87.0775 87.906 87.5575 88.182C88.0375 88.458 88.5835 88.596 89.1955 88.596ZM103.086 89.19V81.972H98.9465L98.8565 83.808C98.8325 84.408 98.7905 84.99 98.7305 85.554C98.6825 86.106 98.5985 86.616 98.4785 87.084C98.3705 87.552 98.2085 87.936 97.9925 88.236C97.7765 88.536 97.4885 88.722 97.1285 88.794L95.4185 88.488C95.7905 88.5 96.0905 88.38 96.3185 88.128C96.5465 87.864 96.7205 87.504 96.8405 87.048C96.9725 86.592 97.0685 86.076 97.1285 85.5C97.1885 84.912 97.2365 84.306 97.2725 83.682L97.4165 80.46H104.814V89.19H103.086ZM95.0405 92.214V88.488H106.272V92.214H104.652V90H96.6785V92.214H95.0405ZM114.374 90V87.984L114.284 87.606V84.168C114.284 83.436 114.068 82.872 113.636 82.476C113.216 82.068 112.58 81.864 111.728 81.864C111.164 81.864 110.612 81.96 110.072 82.152C109.532 82.332 109.076 82.578 108.704 82.89L107.984 81.594C108.476 81.198 109.064 80.898 109.748 80.694C110.444 80.478 111.17 80.37 111.926 80.37C113.234 80.37 114.242 80.688 114.95 81.324C115.658 81.96 116.012 82.932 116.012 84.24V90H114.374ZM111.242 90.108C110.534 90.108 109.91 89.988 109.37 89.748C108.842 89.508 108.434 89.178 108.146 88.758C107.858 88.326 107.714 87.84 107.714 87.3C107.714 86.784 107.834 86.316 108.074 85.896C108.326 85.476 108.728 85.14 109.28 84.888C109.844 84.636 110.6 84.51 111.548 84.51H114.572V85.752H111.62C110.756 85.752 110.174 85.896 109.874 86.184C109.574 86.472 109.424 86.82 109.424 87.228C109.424 87.696 109.61 88.074 109.982 88.362C110.354 88.638 110.87 88.776 111.53 88.776C112.178 88.776 112.742 88.632 113.222 88.344C113.714 88.056 114.068 87.636 114.284 87.084L114.626 88.272C114.398 88.836 113.996 89.286 113.42 89.622C112.844 89.946 112.118 90.108 111.242 90.108ZM124.181 90.108C123.389 90.108 122.663 89.928 122.003 89.568C121.355 89.196 120.833 88.65 120.437 87.93C120.053 87.21 119.861 86.31 119.861 85.23C119.861 84.15 120.047 83.25 120.419 82.53C120.803 81.81 121.319 81.27 121.967 80.91C122.627 80.55 123.365 80.37 124.181 80.37C125.117 80.37 125.945 80.574 126.665 80.982C127.385 81.39 127.955 81.96 128.375 82.692C128.795 83.412 129.005 84.258 129.005 85.23C129.005 86.202 128.795 87.054 128.375 87.786C127.955 88.518 127.385 89.088 126.665 89.496C125.945 89.904 125.117 90.108 124.181 90.108ZM119.123 93.492V80.46H120.779V83.034L120.671 85.248L120.851 87.462V93.492H119.123ZM124.037 88.596C124.649 88.596 125.195 88.458 125.675 88.182C126.167 87.906 126.551 87.516 126.827 87.012C127.115 86.496 127.259 85.902 127.259 85.23C127.259 84.546 127.115 83.958 126.827 83.466C126.551 82.962 126.167 82.572 125.675 82.296C125.195 82.02 124.649 81.882 124.037 81.882C123.437 81.882 122.891 82.02 122.399 82.296C121.919 82.572 121.535 82.962 121.247 83.466C120.971 83.958 120.833 84.546 120.833 85.23C120.833 85.902 120.971 86.496 121.247 87.012C121.535 87.516 121.919 87.906 122.399 88.182C122.891 88.458 123.437 88.596 124.037 88.596ZM137.301 90V86.652L137.571 86.976H134.529C133.257 86.976 132.261 86.706 131.541 86.166C130.833 85.626 130.479 84.84 130.479 83.808C130.479 82.704 130.857 81.87 131.613 81.306C132.381 80.742 133.401 80.46 134.673 80.46H138.849V90H137.301ZM130.389 90L132.981 86.346H134.763L132.243 90H130.389ZM137.301 86.112V81.486L137.571 81.972H134.727C133.935 81.972 133.323 82.122 132.891 82.422C132.459 82.71 132.243 83.19 132.243 83.862C132.243 85.11 133.047 85.734 134.655 85.734H137.571L137.301 86.112ZM147.055 90V80.46H148.783V84.51H154.219V80.46H155.947V90H154.219V86.004H148.783V90H147.055ZM165.157 90V87.984L165.067 87.606V84.168C165.067 83.436 164.851 82.872 164.419 82.476C163.999 82.068 163.363 81.864 162.511 81.864C161.947 81.864 161.395 81.96 160.855 82.152C160.315 82.332 159.859 82.578 159.487 82.89L158.767 81.594C159.259 81.198 159.847 80.898 160.531 80.694C161.227 80.478 161.953 80.37 162.709 80.37C164.017 80.37 165.025 80.688 165.733 81.324C166.441 81.96 166.795 82.932 166.795 84.24V90H165.157ZM162.025 90.108C161.317 90.108 160.693 89.988 160.153 89.748C159.625 89.508 159.217 89.178 158.929 88.758C158.641 88.326 158.497 87.84 158.497 87.3C158.497 86.784 158.617 86.316 158.857 85.896C159.109 85.476 159.511 85.14 160.063 84.888C160.627 84.636 161.383 84.51 162.331 84.51H165.355V85.752H162.403C161.539 85.752 160.957 85.896 160.657 86.184C160.357 86.472 160.207 86.82 160.207 87.228C160.207 87.696 160.393 88.074 160.765 88.362C161.137 88.638 161.653 88.776 162.313 88.776C162.961 88.776 163.525 88.632 164.005 88.344C164.497 88.056 164.851 87.636 165.067 87.084L165.409 88.272C165.181 88.836 164.779 89.286 164.203 89.622C163.627 89.946 162.901 90.108 162.025 90.108ZM176.818 90L173.128 85.356L174.55 84.492L178.852 90H176.818ZM169.906 90V80.46H171.634V90H169.906ZM171.112 85.968V84.492H174.262V85.968H171.112ZM174.694 85.428L173.092 85.212L176.746 80.46H178.6L174.694 85.428ZM184.434 90.108C183.474 90.108 182.622 89.898 181.878 89.478C181.134 89.058 180.546 88.482 180.114 87.75C179.682 87.006 179.466 86.166 179.466 85.23C179.466 84.282 179.682 83.442 180.114 82.71C180.546 81.978 181.134 81.408 181.878 81C182.622 80.58 183.474 80.37 184.434 80.37C185.382 80.37 186.228 80.58 186.972 81C187.728 81.408 188.316 81.978 188.736 82.71C189.168 83.43 189.384 84.27 189.384 85.23C189.384 86.178 189.168 87.018 188.736 87.75C188.316 88.482 187.728 89.058 186.972 89.478C186.228 89.898 185.382 90.108 184.434 90.108ZM184.434 88.596C185.046 88.596 185.592 88.458 186.072 88.182C186.564 87.906 186.948 87.516 187.224 87.012C187.5 86.496 187.638 85.902 187.638 85.23C187.638 84.546 187.5 83.958 187.224 83.466C186.948 82.962 186.564 82.572 186.072 82.296C185.592 82.02 185.046 81.882 184.434 81.882C183.822 81.882 183.276 82.02 182.796 82.296C182.316 82.572 181.932 82.962 181.644 83.466C181.356 83.958 181.212 84.546 181.212 85.23C181.212 85.902 181.356 86.496 181.644 87.012C181.932 87.516 182.316 87.906 182.796 88.182C183.276 88.458 183.822 88.596 184.434 88.596ZM191.879 90V80.46H200.717V90H198.989V81.54L199.403 81.972H193.193L193.607 81.54V90H191.879ZM202.477 89.982L202.585 88.524C202.669 88.536 202.747 88.548 202.819 88.56C202.891 88.572 202.957 88.578 203.017 88.578C203.401 88.578 203.701 88.446 203.917 88.182C204.145 87.918 204.313 87.57 204.421 87.138C204.529 86.694 204.607 86.196 204.655 85.644C204.703 85.092 204.739 84.54 204.763 83.988L204.925 80.46H212.251V90H210.523V81.468L210.937 81.972H206.041L206.437 81.45L206.311 84.096C206.275 84.936 206.209 85.722 206.113 86.454C206.017 87.186 205.867 87.828 205.663 88.38C205.471 88.932 205.201 89.364 204.853 89.676C204.517 89.988 204.079 90.144 203.539 90.144C203.383 90.144 203.215 90.126 203.035 90.09C202.867 90.066 202.681 90.03 202.477 89.982ZM219.84 90.108C218.82 90.108 217.92 89.898 217.14 89.478C216.372 89.058 215.772 88.482 215.34 87.75C214.92 87.018 214.71 86.178 214.71 85.23C214.71 84.282 214.914 83.442 215.322 82.71C215.742 81.978 216.312 81.408 217.032 81C217.764 80.58 218.586 80.37 219.498 80.37C220.422 80.37 221.238 80.574 221.946 80.982C222.654 81.39 223.206 81.966 223.602 82.71C224.01 83.442 224.214 84.3 224.214 85.284C224.214 85.356 224.208 85.44 224.196 85.536C224.196 85.632 224.19 85.722 224.178 85.806H216.06V84.564H223.278L222.576 84.996C222.588 84.384 222.462 83.838 222.198 83.358C221.934 82.878 221.568 82.506 221.1 82.242C220.644 81.966 220.11 81.828 219.498 81.828C218.898 81.828 218.364 81.966 217.896 82.242C217.428 82.506 217.062 82.884 216.798 83.376C216.534 83.856 216.402 84.408 216.402 85.032V85.32C216.402 85.956 216.546 86.526 216.834 87.03C217.134 87.522 217.548 87.906 218.076 88.182C218.604 88.458 219.21 88.596 219.894 88.596C220.458 88.596 220.968 88.5 221.424 88.308C221.892 88.116 222.3 87.828 222.648 87.444L223.602 88.56C223.17 89.064 222.63 89.448 221.982 89.712C221.346 89.976 220.632 90.108 219.84 90.108ZM226.895 90V80.46H228.623V84.51H234.059V80.46H235.787V90H234.059V86.004H228.623V90H226.895ZM239.147 90V80.46H240.875V84.51H246.311V80.46H248.039V90H246.311V86.004H240.875V90H239.147ZM255.485 90.108C254.525 90.108 253.673 89.898 252.929 89.478C252.185 89.058 251.597 88.482 251.165 87.75C250.733 87.006 250.517 86.166 250.517 85.23C250.517 84.282 250.733 83.442 251.165 82.71C251.597 81.978 252.185 81.408 252.929 81C253.673 80.58 254.525 80.37 255.485 80.37C256.433 80.37 257.279 80.58 258.023 81C258.779 81.408 259.367 81.978 259.787 82.71C260.219 83.43 260.435 84.27 260.435 85.23C260.435 86.178 260.219 87.018 259.787 87.75C259.367 88.482 258.779 89.058 258.023 89.478C257.279 89.898 256.433 90.108 255.485 90.108ZM255.485 88.596C256.097 88.596 256.643 88.458 257.123 88.182C257.615 87.906 257.999 87.516 258.275 87.012C258.551 86.496 258.689 85.902 258.689 85.23C258.689 84.546 258.551 83.958 258.275 83.466C257.999 82.962 257.615 82.572 257.123 82.296C256.643 82.02 256.097 81.882 255.485 81.882C254.873 81.882 254.327 82.02 253.847 82.296C253.367 82.572 252.983 82.962 252.695 83.466C252.407 83.958 252.263 84.546 252.263 85.23C252.263 85.902 252.407 86.496 252.695 87.012C252.983 87.516 253.367 87.906 253.847 88.182C254.327 88.458 254.873 88.596 255.485 88.596ZM262.93 90V80.46H264.712L268.816 87.516H268.096L272.308 80.46H273.928V90H272.362V82.404L272.65 82.566L268.798 88.92H268.042L264.172 82.44L264.514 82.368V90H262.93ZM277.777 93.6C277.321 93.6 276.877 93.522 276.445 93.366C276.013 93.222 275.641 93.006 275.329 92.718L276.067 91.422C276.307 91.65 276.571 91.824 276.859 91.944C277.147 92.064 277.453 92.124 277.777 92.124C278.197 92.124 278.545 92.016 278.821 91.8C279.097 91.584 279.355 91.2 279.595 90.648L280.189 89.334L280.369 89.118L284.113 80.46H285.805L281.179 90.954C280.903 91.626 280.591 92.154 280.243 92.538C279.907 92.922 279.535 93.192 279.127 93.348C278.719 93.516 278.269 93.6 277.777 93.6ZM280.045 90.306L275.689 80.46H277.489L281.197 88.956L280.045 90.306ZM45.76 112.108C44.8 112.108 43.948 111.898 43.204 111.478C42.46 111.058 41.872 110.482 41.44 109.75C41.008 109.006 40.792 108.166 40.792 107.23C40.792 106.282 41.008 105.442 41.44 104.71C41.872 103.978 42.46 103.408 43.204 103C43.948 102.58 44.8 102.37 45.76 102.37C46.708 102.37 47.554 102.58 48.298 103C49.054 103.408 49.642 103.978 50.062 104.71C50.494 105.43 50.71 106.27 50.71 107.23C50.71 108.178 50.494 109.018 50.062 109.75C49.642 110.482 49.054 111.058 48.298 111.478C47.554 111.898 46.708 112.108 45.76 112.108ZM45.76 110.596C46.372 110.596 46.918 110.458 47.398 110.182C47.89 109.906 48.274 109.516 48.55 109.012C48.826 108.496 48.964 107.902 48.964 107.23C48.964 106.546 48.826 105.958 48.55 105.466C48.274 104.962 47.89 104.572 47.398 104.296C46.918 104.02 46.372 103.882 45.76 103.882C45.148 103.882 44.602 104.02 44.122 104.296C43.642 104.572 43.258 104.962 42.97 105.466C42.682 105.958 42.538 106.546 42.538 107.23C42.538 107.902 42.682 108.496 42.97 109.012C43.258 109.516 43.642 109.906 44.122 110.182C44.602 110.458 45.148 110.596 45.76 110.596ZM53.2053 112V102.46H62.0433V112H60.3153V103.54L60.7293 103.972H54.5193L54.9333 103.54V112H53.2053ZM74.8189 112V102.46H76.5469V112H74.8189ZM69.6889 105.7C70.9009 105.712 71.8189 105.988 72.4429 106.528C73.0789 107.068 73.3969 107.83 73.3969 108.814C73.3969 109.846 73.0489 110.644 72.3529 111.208C71.6689 111.76 70.6849 112.03 69.4009 112.018L65.3869 112V102.46H67.1149V105.682L69.6889 105.7ZM69.2749 110.704C70.0429 110.716 70.6309 110.56 71.0389 110.236C71.4469 109.912 71.6509 109.432 71.6509 108.796C71.6509 108.172 71.4469 107.716 71.0389 107.428C70.6429 107.14 70.0549 106.99 69.2749 106.978L67.1149 106.942V110.686L69.2749 110.704ZM81.7964 112V103.522L82.2284 103.972H78.3044V102.46H87.0164V103.972H83.1104L83.5244 103.522V112H81.7964ZM89.2694 115.6C88.8134 115.6 88.3694 115.522 87.9374 115.366C87.5054 115.222 87.1334 115.006 86.8214 114.718L87.5594 113.422C87.7994 113.65 88.0634 113.824 88.3514 113.944C88.6394 114.064 88.9454 114.124 89.2694 114.124C89.6894 114.124 90.0374 114.016 90.3134 113.8C90.5894 113.584 90.8474 113.2 91.0874 112.648L91.6814 111.334L91.8614 111.118L95.6054 102.46H97.2974L92.6714 112.954C92.3954 113.626 92.0834 114.154 91.7354 114.538C91.3994 114.922 91.0274 115.192 90.6194 115.348C90.2114 115.516 89.7614 115.6 89.2694 115.6ZM91.5374 112.306L87.1814 102.46H88.9814L92.6894 110.956L91.5374 112.306ZM103.901 112V102.46H108.329C109.445 102.46 110.321 102.676 110.957 103.108C111.605 103.528 111.929 104.128 111.929 104.908C111.929 105.688 111.623 106.294 111.011 106.726C110.411 107.146 109.613 107.356 108.617 107.356L108.887 106.888C110.027 106.888 110.873 107.098 111.425 107.518C111.977 107.938 112.253 108.556 112.253 109.372C112.253 110.2 111.941 110.848 111.317 111.316C110.705 111.772 109.763 112 108.491 112H103.901ZM105.593 110.668H108.365C109.085 110.668 109.625 110.56 109.985 110.344C110.345 110.116 110.525 109.756 110.525 109.264C110.525 108.76 110.357 108.394 110.021 108.166C109.697 107.926 109.181 107.806 108.473 107.806H105.593V110.668ZM105.593 106.564H108.185C108.845 106.564 109.343 106.444 109.679 106.204C110.027 105.952 110.201 105.604 110.201 105.16C110.201 104.704 110.027 104.362 109.679 104.134C109.343 103.906 108.845 103.792 108.185 103.792H105.593V106.564ZM126.307 111.19V103.972H122.167L122.077 105.808C122.053 106.408 122.011 106.99 121.951 107.554C121.903 108.106 121.819 108.616 121.699 109.084C121.591 109.552 121.429 109.936 121.213 110.236C120.997 110.536 120.709 110.722 120.349 110.794L118.639 110.488C119.011 110.5 119.311 110.38 119.539 110.128C119.767 109.864 119.941 109.504 120.061 109.048C120.193 108.592 120.289 108.076 120.349 107.5C120.409 106.912 120.457 106.306 120.493 105.682L120.637 102.46H128.035V111.19H126.307ZM118.261 114.214V110.488H129.493V114.214H127.873V112H119.899V114.214H118.261ZM131.744 112V102.46H136.172C137.288 102.46 138.164 102.676 138.8 103.108C139.448 103.528 139.772 104.128 139.772 104.908C139.772 105.688 139.466 106.294 138.854 106.726C138.254 107.146 137.456 107.356 136.46 107.356L136.73 106.888C137.87 106.888 138.716 107.098 139.268 107.518C139.82 107.938 140.096 108.556 140.096 109.372C140.096 110.2 139.784 110.848 139.16 111.316C138.548 111.772 137.606 112 136.334 112H131.744ZM133.436 110.668H136.208C136.928 110.668 137.468 110.56 137.828 110.344C138.188 110.116 138.368 109.756 138.368 109.264C138.368 108.76 138.2 108.394 137.864 108.166C137.54 107.926 137.024 107.806 136.316 107.806H133.436V110.668ZM133.436 106.564H136.028C136.688 106.564 137.186 106.444 137.522 106.204C137.87 105.952 138.044 105.604 138.044 105.16C138.044 104.704 137.87 104.362 137.522 104.134C137.186 103.906 136.688 103.792 136.028 103.792H133.436V106.564ZM142.801 112V102.46H144.529V109.408L150.379 102.46H151.945V112H150.217V105.052L144.385 112H142.801ZM166.621 112L163.579 107.356L165.001 106.492L168.673 112H166.621ZM161.599 107.968V106.492H164.695V107.968H161.599ZM165.163 107.428L163.525 107.212L166.567 102.46H168.421L165.163 107.428ZM155.911 112H153.859L157.513 106.492L158.935 107.356L155.911 112ZM162.121 112H160.393V102.46H162.121V112ZM160.915 107.968H157.837V106.492H160.915V107.968ZM157.369 107.428L154.111 102.46H155.947L158.989 107.212L157.369 107.428ZM174.506 112.108C173.486 112.108 172.586 111.898 171.806 111.478C171.038 111.058 170.438 110.482 170.006 109.75C169.586 109.018 169.376 108.178 169.376 107.23C169.376 106.282 169.58 105.442 169.988 104.71C170.408 103.978 170.978 103.408 171.698 103C172.43 102.58 173.252 102.37 174.164 102.37C175.088 102.37 175.904 102.574 176.612 102.982C177.32 103.39 177.872 103.966 178.268 104.71C178.676 105.442 178.88 106.3 178.88 107.284C178.88 107.356 178.874 107.44 178.862 107.536C178.862 107.632 178.856 107.722 178.844 107.806H170.726V106.564H177.944L177.242 106.996C177.254 106.384 177.128 105.838 176.864 105.358C176.6 104.878 176.234 104.506 175.766 104.242C175.31 103.966 174.776 103.828 174.164 103.828C173.564 103.828 173.03 103.966 172.562 104.242C172.094 104.506 171.728 104.884 171.464 105.376C171.2 105.856 171.068 106.408 171.068 107.032V107.32C171.068 107.956 171.212 108.526 171.5 109.03C171.8 109.522 172.214 109.906 172.742 110.182C173.27 110.458 173.876 110.596 174.56 110.596C175.124 110.596 175.634 110.5 176.09 110.308C176.558 110.116 176.966 109.828 177.314 109.444L178.268 110.56C177.836 111.064 177.296 111.448 176.648 111.712C176.012 111.976 175.298 112.108 174.506 112.108ZM181.561 112V102.46H183.289V106.51H188.725V102.46H190.453V112H188.725V108.004H183.289V112H181.561ZM193.813 112V102.46H195.541V109.408L201.391 102.46H202.957V112H201.229V105.052L195.397 112H193.813ZM206.311 112V102.46H208.039V109.408L213.889 102.46H215.455V112H213.727V105.052L207.895 112H206.311ZM226.757 112L222.545 99.4H224.399L228.269 111.028H227.333L231.347 99.4H233.003L236.927 111.028H236.027L239.951 99.4H241.661L237.449 112H235.559L231.887 101.218H232.373L228.683 112H226.757ZM246.976 112.108C246.016 112.108 245.164 111.898 244.42 111.478C243.676 111.058 243.088 110.482 242.656 109.75C242.224 109.006 242.008 108.166 242.008 107.23C242.008 106.282 242.224 105.442 242.656 104.71C243.088 103.978 243.676 103.408 244.42 103C245.164 102.58 246.016 102.37 246.976 102.37C247.924 102.37 248.77 102.58 249.514 103C250.27 103.408 250.858 103.978 251.278 104.71C251.71 105.43 251.926 106.27 251.926 107.23C251.926 108.178 251.71 109.018 251.278 109.75C250.858 110.482 250.27 111.058 249.514 111.478C248.77 111.898 247.924 112.108 246.976 112.108ZM246.976 110.596C247.588 110.596 248.134 110.458 248.614 110.182C249.106 109.906 249.49 109.516 249.766 109.012C250.042 108.496 250.18 107.902 250.18 107.23C250.18 106.546 250.042 105.958 249.766 105.466C249.49 104.962 249.106 104.572 248.614 104.296C248.134 104.02 247.588 103.882 246.976 103.882C246.364 103.882 245.818 104.02 245.338 104.296C244.858 104.572 244.474 104.962 244.186 105.466C243.898 105.958 243.754 106.546 243.754 107.23C243.754 107.902 243.898 108.496 244.186 109.012C244.474 109.516 244.858 109.906 245.338 110.182C245.818 110.458 246.364 110.596 246.976 110.596ZM254.316 112V102.46H255.972V105.052L255.81 104.404C256.074 103.744 256.518 103.24 257.142 102.892C257.766 102.544 258.534 102.37 259.446 102.37V104.044C259.374 104.032 259.302 104.026 259.23 104.026C259.17 104.026 259.11 104.026 259.05 104.026C258.126 104.026 257.394 104.302 256.854 104.854C256.314 105.406 256.044 106.204 256.044 107.248V112H254.316ZM261.576 112V98.644H263.304V112H261.576ZM270.545 112.108C269.621 112.108 268.793 111.904 268.061 111.496C267.341 111.088 266.771 110.518 266.351 109.786C265.931 109.054 265.721 108.202 265.721 107.23C265.721 106.258 265.931 105.412 266.351 104.692C266.771 103.96 267.341 103.39 268.061 102.982C268.793 102.574 269.621 102.37 270.545 102.37C271.349 102.37 272.075 102.55 272.723 102.91C273.371 103.27 273.887 103.81 274.271 104.53C274.667 105.25 274.865 106.15 274.865 107.23C274.865 108.31 274.673 109.21 274.289 109.93C273.917 110.65 273.407 111.196 272.759 111.568C272.111 111.928 271.373 112.108 270.545 112.108ZM270.689 110.596C271.289 110.596 271.829 110.458 272.309 110.182C272.801 109.906 273.185 109.516 273.461 109.012C273.749 108.496 273.893 107.902 273.893 107.23C273.893 106.546 273.749 105.958 273.461 105.466C273.185 104.962 272.801 104.572 272.309 104.296C271.829 104.02 271.289 103.882 270.689 103.882C270.077 103.882 269.531 104.02 269.051 104.296C268.571 104.572 268.187 104.962 267.899 105.466C267.611 105.958 267.467 106.546 267.467 107.23C267.467 107.902 267.611 108.496 267.899 109.012C268.187 109.516 268.571 109.906 269.051 110.182C269.531 110.458 270.077 110.596 270.689 110.596ZM273.947 112V109.426L274.055 107.212L273.875 104.998V98.644H275.603V112H273.947ZM282.796 112.144C281.836 112.144 280.918 112 280.042 111.712C279.166 111.412 278.476 111.028 277.972 110.56L278.638 109.156C279.118 109.576 279.73 109.924 280.474 110.2C281.218 110.476 281.992 110.614 282.796 110.614C283.528 110.614 284.122 110.53 284.578 110.362C285.034 110.194 285.37 109.966 285.586 109.678C285.802 109.378 285.91 109.042 285.91 108.67C285.91 108.238 285.766 107.89 285.478 107.626C285.202 107.362 284.836 107.152 284.38 106.996C283.936 106.828 283.444 106.684 282.904 106.564C282.364 106.444 281.818 106.306 281.266 106.15C280.726 105.982 280.228 105.772 279.772 105.52C279.328 105.268 278.968 104.932 278.692 104.512C278.416 104.08 278.278 103.528 278.278 102.856C278.278 102.208 278.446 101.614 278.782 101.074C279.13 100.522 279.658 100.084 280.366 99.76C281.086 99.424 281.998 99.256 283.102 99.256C283.834 99.256 284.56 99.352 285.28 99.544C286 99.736 286.624 100.012 287.152 100.372L286.558 101.812C286.018 101.452 285.448 101.194 284.848 101.038C284.248 100.87 283.666 100.786 283.102 100.786C282.394 100.786 281.812 100.876 281.356 101.056C280.9 101.236 280.564 101.476 280.348 101.776C280.144 102.076 280.042 102.412 280.042 102.784C280.042 103.228 280.18 103.582 280.456 103.846C280.744 104.11 281.11 104.32 281.554 104.476C282.01 104.632 282.508 104.776 283.048 104.908C283.588 105.028 284.128 105.166 284.668 105.322C285.22 105.478 285.718 105.682 286.162 105.934C286.618 106.186 286.984 106.522 287.26 106.942C287.536 107.362 287.674 107.902 287.674 108.562C287.674 109.198 287.5 109.792 287.152 110.344C286.804 110.884 286.264 111.322 285.532 111.658C284.812 111.982 283.9 112.144 282.796 112.144ZM291.456 109.696L291.492 107.482L296.982 102.46H299.07L294.858 106.6L293.922 107.392L291.456 109.696ZM290.052 112V98.644H291.78V112H290.052ZM297.342 112L293.598 107.356L294.714 105.97L299.466 112H297.342ZM301.144 112V102.46H302.872V112H301.144ZM302.008 100.624C301.672 100.624 301.39 100.516 301.162 100.3C300.946 100.084 300.838 99.82 300.838 99.508C300.838 99.184 300.946 98.914 301.162 98.698C301.39 98.482 301.672 98.374 302.008 98.374C302.344 98.374 302.62 98.482 302.836 98.698C303.064 98.902 303.178 99.16 303.178 99.472C303.178 99.796 303.07 100.072 302.854 100.3C302.638 100.516 302.356 100.624 302.008 100.624ZM306.171 112V98.644H307.899V112H306.171ZM311.199 112V98.644H312.927V112H311.199ZM318.962 112.108C318.17 112.108 317.414 112 316.694 111.784C315.986 111.568 315.428 111.304 315.02 110.992L315.74 109.624C316.148 109.9 316.652 110.134 317.252 110.326C317.852 110.518 318.464 110.614 319.088 110.614C319.892 110.614 320.468 110.5 320.816 110.272C321.176 110.044 321.356 109.726 321.356 109.318C321.356 109.018 321.248 108.784 321.032 108.616C320.816 108.448 320.528 108.322 320.168 108.238C319.82 108.154 319.43 108.082 318.998 108.022C318.566 107.95 318.134 107.866 317.702 107.77C317.27 107.662 316.874 107.518 316.514 107.338C316.154 107.146 315.866 106.888 315.65 106.564C315.434 106.228 315.326 105.784 315.326 105.232C315.326 104.656 315.488 104.152 315.812 103.72C316.136 103.288 316.592 102.958 317.18 102.73C317.78 102.49 318.488 102.37 319.304 102.37C319.928 102.37 320.558 102.448 321.194 102.604C321.842 102.748 322.37 102.958 322.778 103.234L322.04 104.602C321.608 104.314 321.158 104.116 320.69 104.008C320.222 103.9 319.754 103.846 319.286 103.846C318.53 103.846 317.966 103.972 317.594 104.224C317.222 104.464 317.036 104.776 317.036 105.16C317.036 105.484 317.144 105.736 317.36 105.916C317.588 106.084 317.876 106.216 318.224 106.312C318.584 106.408 318.98 106.492 319.412 106.564C319.844 106.624 320.276 106.708 320.708 106.816C321.14 106.912 321.53 107.05 321.878 107.23C322.238 107.41 322.526 107.662 322.742 107.986C322.97 108.31 323.084 108.742 323.084 109.282C323.084 109.858 322.916 110.356 322.58 110.776C322.244 111.196 321.77 111.526 321.158 111.766C320.546 111.994 319.814 112.108 318.962 112.108ZM41.674 134V124.46H50.512V134H48.784V125.54L49.198 125.972H42.988L43.402 125.54V134H41.674ZM58.9136 134.108C58.1216 134.108 57.3956 133.928 56.7356 133.568C56.0876 133.196 55.5656 132.65 55.1696 131.93C54.7856 131.21 54.5936 130.31 54.5936 129.23C54.5936 128.15 54.7796 127.25 55.1516 126.53C55.5356 125.81 56.0516 125.27 56.6996 124.91C57.3596 124.55 58.0976 124.37 58.9136 124.37C59.8496 124.37 60.6776 124.574 61.3976 124.982C62.1176 125.39 62.6876 125.96 63.1076 126.692C63.5276 127.412 63.7376 128.258 63.7376 129.23C63.7376 130.202 63.5276 131.054 63.1076 131.786C62.6876 132.518 62.1176 133.088 61.3976 133.496C60.6776 133.904 59.8496 134.108 58.9136 134.108ZM53.8556 137.492V124.46H55.5116V127.034L55.4036 129.248L55.5836 131.462V137.492H53.8556ZM58.7696 132.596C59.3816 132.596 59.9276 132.458 60.4076 132.182C60.8996 131.906 61.2836 131.516 61.5596 131.012C61.8476 130.496 61.9916 129.902 61.9916 129.23C61.9916 128.546 61.8476 127.958 61.5596 127.466C61.2836 126.962 60.8996 126.572 60.4076 126.296C59.9276 126.02 59.3816 125.882 58.7696 125.882C58.1696 125.882 57.6236 126.02 57.1316 126.296C56.6516 126.572 56.2676 126.962 55.9796 127.466C55.7036 127.958 55.5656 128.546 55.5656 129.23C55.5656 129.902 55.7036 130.496 55.9796 131.012C56.2676 131.516 56.6516 131.906 57.1316 132.182C57.6236 132.458 58.1696 132.596 58.7696 132.596ZM66.2482 134V124.46H67.9762V131.408L73.8262 124.46H75.3922V134H73.6642V127.052L67.8322 134H66.2482ZM78.7463 134V124.46H80.5283L84.6323 131.516H83.9123L88.1243 124.46H89.7443V134H88.1783V126.404L88.4663 126.566L84.6143 132.92H83.8583L79.9883 126.44L80.3303 126.368V134H78.7463ZM97.3556 134.108C96.3356 134.108 95.4356 133.898 94.6556 133.478C93.8876 133.058 93.2876 132.482 92.8556 131.75C92.4356 131.018 92.2256 130.178 92.2256 129.23C92.2256 128.282 92.4296 127.442 92.8376 126.71C93.2576 125.978 93.8276 125.408 94.5476 125C95.2796 124.58 96.1016 124.37 97.0136 124.37C97.9376 124.37 98.7536 124.574 99.4616 124.982C100.17 125.39 100.722 125.966 101.118 126.71C101.526 127.442 101.73 128.3 101.73 129.284C101.73 129.356 101.724 129.44 101.712 129.536C101.712 129.632 101.706 129.722 101.694 129.806H93.5756V128.564H100.794L100.092 128.996C100.104 128.384 99.9776 127.838 99.7136 127.358C99.4496 126.878 99.0836 126.506 98.6156 126.242C98.1596 125.966 97.6256 125.828 97.0136 125.828C96.4136 125.828 95.8796 125.966 95.4116 126.242C94.9436 126.506 94.5776 126.884 94.3136 127.376C94.0496 127.856 93.9176 128.408 93.9176 129.032V129.32C93.9176 129.956 94.0616 130.526 94.3496 131.03C94.6496 131.522 95.0636 131.906 95.5916 132.182C96.1196 132.458 96.7256 132.596 97.4096 132.596C97.9736 132.596 98.4836 132.5 98.9396 132.308C99.4076 132.116 99.8156 131.828 100.164 131.444L101.118 132.56C100.686 133.064 100.146 133.448 99.4976 133.712C98.8616 133.976 98.1476 134.108 97.3556 134.108ZM104.41 134V124.46H106.138V128.51H111.574V124.46H113.302V134H111.574V130.004H106.138V134H104.41ZM122.764 134V130.652L123.034 130.976H119.992C118.72 130.976 117.724 130.706 117.004 130.166C116.296 129.626 115.942 128.84 115.942 127.808C115.942 126.704 116.32 125.87 117.076 125.306C117.844 124.742 118.864 124.46 120.136 124.46H124.312V134H122.764ZM115.852 134L118.444 130.346H120.226L117.706 134H115.852ZM122.764 130.112V125.486L123.034 125.972H120.19C119.398 125.972 118.786 126.122 118.354 126.422C117.922 126.71 117.706 127.19 117.706 127.862C117.706 129.11 118.51 129.734 120.118 129.734H123.034L122.764 130.112ZM131.932 134.108C130.912 134.108 130.012 133.898 129.232 133.478C128.464 133.058 127.864 132.482 127.432 131.75C127.012 131.018 126.802 130.178 126.802 129.23C126.802 128.282 127.006 127.442 127.414 126.71C127.834 125.978 128.404 125.408 129.124 125C129.856 124.58 130.678 124.37 131.59 124.37C132.514 124.37 133.33 124.574 134.038 124.982C134.746 125.39 135.298 125.966 135.694 126.71C136.102 127.442 136.306 128.3 136.306 129.284C136.306 129.356 136.3 129.44 136.288 129.536C136.288 129.632 136.282 129.722 136.27 129.806H128.152V128.564H135.37L134.668 128.996C134.68 128.384 134.554 127.838 134.29 127.358C134.026 126.878 133.66 126.506 133.192 126.242C132.736 125.966 132.202 125.828 131.59 125.828C130.99 125.828 130.456 125.966 129.988 126.242C129.52 126.506 129.154 126.884 128.89 127.376C128.626 127.856 128.494 128.408 128.494 129.032V129.32C128.494 129.956 128.638 130.526 128.926 131.03C129.226 131.522 129.64 131.906 130.168 132.182C130.696 132.458 131.302 132.596 131.986 132.596C132.55 132.596 133.06 132.5 133.516 132.308C133.984 132.116 134.392 131.828 134.74 131.444L135.694 132.56C135.262 133.064 134.722 133.448 134.074 133.712C133.438 133.976 132.724 134.108 131.932 134.108ZM140.472 134V125.522L140.904 125.972H136.98V124.46H145.692V125.972H141.786L142.2 125.522V134H140.472ZM151.195 134.108C150.223 134.108 149.353 133.898 148.585 133.478C147.829 133.058 147.235 132.482 146.803 131.75C146.371 131.018 146.155 130.178 146.155 129.23C146.155 128.282 146.371 127.442 146.803 126.71C147.235 125.978 147.829 125.408 148.585 125C149.353 124.58 150.223 124.37 151.195 124.37C152.059 124.37 152.827 124.544 153.499 124.892C154.183 125.228 154.711 125.732 155.083 126.404L153.769 127.25C153.457 126.782 153.073 126.44 152.617 126.224C152.173 125.996 151.693 125.882 151.177 125.882C150.553 125.882 149.995 126.02 149.503 126.296C149.011 126.572 148.621 126.962 148.333 127.466C148.045 127.958 147.901 128.546 147.901 129.23C147.901 129.914 148.045 130.508 148.333 131.012C148.621 131.516 149.011 131.906 149.503 132.182C149.995 132.458 150.553 132.596 151.177 132.596C151.693 132.596 152.173 132.488 152.617 132.272C153.073 132.044 153.457 131.696 153.769 131.228L155.083 132.056C154.711 132.716 154.183 133.226 153.499 133.586C152.827 133.934 152.059 134.108 151.195 134.108ZM163.124 134V130.652L163.394 130.976H160.352C159.08 130.976 158.084 130.706 157.364 130.166C156.656 129.626 156.302 128.84 156.302 127.808C156.302 126.704 156.68 125.87 157.436 125.306C158.204 124.742 159.224 124.46 160.496 124.46H164.672V134H163.124ZM156.212 134L158.804 130.346H160.586L158.066 134H156.212ZM163.124 130.112V125.486L163.394 125.972H160.55C159.758 125.972 159.146 126.122 158.714 126.422C158.282 126.71 158.066 127.19 158.066 127.862C158.066 129.11 158.87 129.734 160.478 129.734H163.394L163.124 130.112ZM181.643 134L177.071 127.79L178.529 126.89L183.695 134H181.643ZM173.165 134V121.4H174.929V134H173.165ZM174.389 128.456V126.872H178.475V128.456H174.389ZM178.691 127.898L177.035 127.646L181.553 121.4H183.479L178.691 127.898ZM189.215 134.108C188.255 134.108 187.403 133.898 186.659 133.478C185.915 133.058 185.327 132.482 184.895 131.75C184.463 131.006 184.247 130.166 184.247 129.23C184.247 128.282 184.463 127.442 184.895 126.71C185.327 125.978 185.915 125.408 186.659 125C187.403 124.58 188.255 124.37 189.215 124.37C190.163 124.37 191.009 124.58 191.753 125C192.509 125.408 193.097 125.978 193.517 126.71C193.949 127.43 194.165 128.27 194.165 129.23C194.165 130.178 193.949 131.018 193.517 131.75C193.097 132.482 192.509 133.058 191.753 133.478C191.009 133.898 190.163 134.108 189.215 134.108ZM189.215 132.596C189.827 132.596 190.373 132.458 190.853 132.182C191.345 131.906 191.729 131.516 192.005 131.012C192.281 130.496 192.419 129.902 192.419 129.23C192.419 128.546 192.281 127.958 192.005 127.466C191.729 126.962 191.345 126.572 190.853 126.296C190.373 126.02 189.827 125.882 189.215 125.882C188.603 125.882 188.057 126.02 187.577 126.296C187.097 126.572 186.713 126.962 186.425 127.466C186.137 127.958 185.993 128.546 185.993 129.23C185.993 129.902 186.137 130.496 186.425 131.012C186.713 131.516 187.097 131.906 187.577 132.182C188.057 132.458 188.603 132.596 189.215 132.596ZM196.66 134V124.46H198.388V128.51H203.824V124.46H205.552V134H203.824V130.004H198.388V134H196.66ZM208.912 134V124.46H210.64V132.488H215.86V124.46H217.588V134H208.912ZM217.462 136.214V133.91L217.894 134H215.86V132.488H219.1V136.214H217.462ZM225.588 134.108C224.568 134.108 223.668 133.898 222.888 133.478C222.12 133.058 221.52 132.482 221.088 131.75C220.668 131.018 220.458 130.178 220.458 129.23C220.458 128.282 220.662 127.442 221.07 126.71C221.49 125.978 222.06 125.408 222.78 125C223.512 124.58 224.334 124.37 225.246 124.37C226.17 124.37 226.986 124.574 227.694 124.982C228.402 125.39 228.954 125.966 229.35 126.71C229.758 127.442 229.962 128.3 229.962 129.284C229.962 129.356 229.956 129.44 229.944 129.536C229.944 129.632 229.938 129.722 229.926 129.806H221.808V128.564H229.026L228.324 128.996C228.336 128.384 228.21 127.838 227.946 127.358C227.682 126.878 227.316 126.506 226.848 126.242C226.392 125.966 225.858 125.828 225.246 125.828C224.646 125.828 224.112 125.966 223.644 126.242C223.176 126.506 222.81 126.884 222.546 127.376C222.282 127.856 222.15 128.408 222.15 129.032V129.32C222.15 129.956 222.294 130.526 222.582 131.03C222.882 131.522 223.296 131.906 223.824 132.182C224.352 132.458 224.958 132.596 225.642 132.596C226.206 132.596 226.716 132.5 227.172 132.308C227.64 132.116 228.048 131.828 228.396 131.444L229.35 132.56C228.918 133.064 228.378 133.448 227.73 133.712C227.094 133.976 226.38 134.108 225.588 134.108ZM232.643 134V124.46H241.481V134H239.753V125.54L240.167 125.972H233.957L234.371 125.54V134H232.643ZM246.714 134V125.522L247.146 125.972H243.222V124.46H251.934V125.972H248.028L248.442 125.522V134H246.714ZM254.187 137.6C253.731 137.6 253.287 137.522 252.855 137.366C252.423 137.222 252.051 137.006 251.739 136.718L252.477 135.422C252.717 135.65 252.981 135.824 253.269 135.944C253.557 136.064 253.863 136.124 254.187 136.124C254.607 136.124 254.955 136.016 255.231 135.8C255.507 135.584 255.765 135.2 256.005 134.648L256.599 133.334L256.779 133.118L260.523 124.46H262.215L257.589 134.954C257.313 135.626 257.001 136.154 256.653 136.538C256.317 136.922 255.945 137.192 255.537 137.348C255.129 137.516 254.679 137.6 254.187 137.6ZM256.455 134.306L252.099 124.46H253.899L257.607 132.956L256.455 134.306ZM269.536 134V131.984L269.446 131.606V128.168C269.446 127.436 269.23 126.872 268.798 126.476C268.378 126.068 267.742 125.864 266.89 125.864C266.326 125.864 265.774 125.96 265.234 126.152C264.694 126.332 264.238 126.578 263.866 126.89L263.146 125.594C263.638 125.198 264.226 124.898 264.91 124.694C265.606 124.478 266.332 124.37 267.088 124.37C268.396 124.37 269.404 124.688 270.112 125.324C270.82 125.96 271.174 126.932 271.174 128.24V134H269.536ZM266.404 134.108C265.696 134.108 265.072 133.988 264.532 133.748C264.004 133.508 263.596 133.178 263.308 132.758C263.02 132.326 262.876 131.84 262.876 131.3C262.876 130.784 262.996 130.316 263.236 129.896C263.488 129.476 263.89 129.14 264.442 128.888C265.006 128.636 265.762 128.51 266.71 128.51H269.734V129.752H266.782C265.918 129.752 265.336 129.896 265.036 130.184C264.736 130.472 264.586 130.82 264.586 131.228C264.586 131.696 264.772 132.074 265.144 132.362C265.516 132.638 266.032 132.776 266.692 132.776C267.34 132.776 267.904 132.632 268.384 132.344C268.876 132.056 269.23 131.636 269.446 131.084L269.788 132.272C269.56 132.836 269.158 133.286 268.582 133.622C268.006 133.946 267.28 134.108 266.404 134.108ZM272.701 133.982L272.809 132.524C272.893 132.536 272.971 132.548 273.043 132.56C273.115 132.572 273.181 132.578 273.241 132.578C273.625 132.578 273.925 132.446 274.141 132.182C274.369 131.918 274.537 131.57 274.645 131.138C274.753 130.694 274.831 130.196 274.879 129.644C274.927 129.092 274.963 128.54 274.987 127.988L275.149 124.46H282.475V134H280.747V125.468L281.161 125.972H276.265L276.661 125.45L276.535 128.096C276.499 128.936 276.433 129.722 276.337 130.454C276.241 131.186 276.091 131.828 275.887 132.38C275.695 132.932 275.425 133.364 275.077 133.676C274.741 133.988 274.303 134.144 273.763 134.144C273.607 134.144 273.439 134.126 273.259 134.09C273.091 134.066 272.905 134.03 272.701 133.982ZM290.227 127.7C291.439 127.712 292.363 127.988 292.999 128.528C293.635 129.068 293.953 129.83 293.953 130.814C293.953 131.846 293.605 132.644 292.909 133.208C292.213 133.76 291.229 134.03 289.957 134.018L285.817 134V124.46H287.545V127.682L290.227 127.7ZM289.813 132.704C290.593 132.716 291.181 132.56 291.577 132.236C291.985 131.912 292.189 131.432 292.189 130.796C292.189 130.172 291.991 129.716 291.595 129.428C291.199 129.14 290.605 128.99 289.813 128.978L287.545 128.942V132.686L289.813 132.704ZM296.17 134V124.46H297.898V128.51H303.334V124.46H305.062V134H303.334V130.004H297.898V134H296.17ZM312.508 134.108C311.548 134.108 310.696 133.898 309.952 133.478C309.208 133.058 308.62 132.482 308.188 131.75C307.756 131.006 307.54 130.166 307.54 129.23C307.54 128.282 307.756 127.442 308.188 126.71C308.62 125.978 309.208 125.408 309.952 125C310.696 124.58 311.548 124.37 312.508 124.37C313.456 124.37 314.302 124.58 315.046 125C315.802 125.408 316.39 125.978 316.81 126.71C317.242 127.43 317.458 128.27 317.458 129.23C317.458 130.178 317.242 131.018 316.81 131.75C316.39 132.482 315.802 133.058 315.046 133.478C314.302 133.898 313.456 134.108 312.508 134.108ZM312.508 132.596C313.12 132.596 313.666 132.458 314.146 132.182C314.638 131.906 315.022 131.516 315.298 131.012C315.574 130.496 315.712 129.902 315.712 129.23C315.712 128.546 315.574 127.958 315.298 127.466C315.022 126.962 314.638 126.572 314.146 126.296C313.666 126.02 313.12 125.882 312.508 125.882C311.896 125.882 311.35 126.02 310.87 126.296C310.39 126.572 310.006 126.962 309.718 127.466C309.43 127.958 309.286 128.546 309.286 129.23C309.286 129.902 309.43 130.496 309.718 131.012C310.006 131.516 310.39 131.906 310.87 132.182C311.35 132.458 311.896 132.596 312.508 132.596ZM41.674 156V146.46H43.402V150.51H48.838V146.46H50.566V156H48.838V152.004H43.402V156H41.674ZM58.012 156.108C57.052 156.108 56.2 155.898 55.456 155.478C54.712 155.058 54.124 154.482 53.692 153.75C53.26 153.006 53.044 152.166 53.044 151.23C53.044 150.282 53.26 149.442 53.692 148.71C54.124 147.978 54.712 147.408 55.456 147C56.2 146.58 57.052 146.37 58.012 146.37C58.96 146.37 59.806 146.58 60.55 147C61.306 147.408 61.894 147.978 62.314 148.71C62.746 149.43 62.962 150.27 62.962 151.23C62.962 152.178 62.746 153.018 62.314 153.75C61.894 154.482 61.306 155.058 60.55 155.478C59.806 155.898 58.96 156.108 58.012 156.108ZM58.012 154.596C58.624 154.596 59.17 154.458 59.65 154.182C60.142 153.906 60.526 153.516 60.802 153.012C61.078 152.496 61.216 151.902 61.216 151.23C61.216 150.546 61.078 149.958 60.802 149.466C60.526 148.962 60.142 148.572 59.65 148.296C59.17 148.02 58.624 147.882 58.012 147.882C57.4 147.882 56.854 148.02 56.374 148.296C55.894 148.572 55.51 148.962 55.222 149.466C54.934 149.958 54.79 150.546 54.79 151.23C54.79 151.902 54.934 152.496 55.222 153.012C55.51 153.516 55.894 153.906 56.374 154.182C56.854 154.458 57.4 154.596 58.012 154.596ZM65.4572 156V146.46H69.8852C71.0012 146.46 71.8772 146.676 72.5132 147.108C73.1612 147.528 73.4852 148.128 73.4852 148.908C73.4852 149.688 73.1792 150.294 72.5672 150.726C71.9672 151.146 71.1692 151.356 70.1732 151.356L70.4432 150.888C71.5832 150.888 72.4292 151.098 72.9812 151.518C73.5332 151.938 73.8092 152.556 73.8092 153.372C73.8092 154.2 73.4972 154.848 72.8732 155.316C72.2612 155.772 71.3192 156 70.0472 156H65.4572ZM67.1492 154.668H69.9212C70.6412 154.668 71.1812 154.56 71.5412 154.344C71.9012 154.116 72.0812 153.756 72.0812 153.264C72.0812 152.76 71.9132 152.394 71.5772 152.166C71.2532 151.926 70.7372 151.806 70.0292 151.806H67.1492V154.668ZM67.1492 150.564H69.7412C70.4012 150.564 70.8992 150.444 71.2352 150.204C71.5832 149.952 71.7572 149.604 71.7572 149.16C71.7572 148.704 71.5832 148.362 71.2352 148.134C70.8992 147.906 70.4012 147.792 69.7412 147.792H67.1492V150.564ZM85.9458 156V146.46H87.6738V156H85.9458ZM80.8158 149.7C82.0278 149.712 82.9458 149.988 83.5698 150.528C84.2058 151.068 84.5238 151.83 84.5238 152.814C84.5238 153.846 84.1758 154.644 83.4798 155.208C82.7958 155.76 81.8118 156.03 80.5278 156.018L76.5138 156V146.46H78.2418V149.682L80.8158 149.7ZM80.4018 154.704C81.1698 154.716 81.7578 154.56 82.1658 154.236C82.5738 153.912 82.7778 153.432 82.7778 152.796C82.7778 152.172 82.5738 151.716 82.1658 151.428C81.7698 151.14 81.1818 150.99 80.4018 150.978L78.2418 150.942V154.686L80.4018 154.704ZM91.0334 156V146.46H92.7614V153.408L98.6114 146.46H100.177V156H98.4494V149.052L92.6174 156H91.0334ZM95.4974 145.218C94.6214 145.218 93.9314 145.008 93.4274 144.588C92.9354 144.156 92.6834 143.538 92.6714 142.734H93.8414C93.8534 143.19 94.0034 143.55 94.2914 143.814C94.5914 144.078 94.9874 144.21 95.4794 144.21C95.9714 144.21 96.3674 144.078 96.6674 143.814C96.9674 143.55 97.1234 143.19 97.1354 142.734H98.3414C98.3294 143.538 98.0714 144.156 97.5674 144.588C97.0634 145.008 96.3734 145.218 95.4974 145.218ZM108.365 156V146.46H117.203V156H115.475V147.54L115.889 147.972H109.679L110.093 147.54V156H108.365ZM124.633 156.108C123.673 156.108 122.821 155.898 122.077 155.478C121.333 155.058 120.745 154.482 120.313 153.75C119.881 153.006 119.665 152.166 119.665 151.23C119.665 150.282 119.881 149.442 120.313 148.71C120.745 147.978 121.333 147.408 122.077 147C122.821 146.58 123.673 146.37 124.633 146.37C125.581 146.37 126.427 146.58 127.171 147C127.927 147.408 128.515 147.978 128.935 148.71C129.367 149.43 129.583 150.27 129.583 151.23C129.583 152.178 129.367 153.018 128.935 153.75C128.515 154.482 127.927 155.058 127.171 155.478C126.427 155.898 125.581 156.108 124.633 156.108ZM124.633 154.596C125.245 154.596 125.791 154.458 126.271 154.182C126.763 153.906 127.147 153.516 127.423 153.012C127.699 152.496 127.837 151.902 127.837 151.23C127.837 150.546 127.699 149.958 127.423 149.466C127.147 148.962 126.763 148.572 126.271 148.296C125.791 148.02 125.245 147.882 124.633 147.882C124.021 147.882 123.475 148.02 122.995 148.296C122.515 148.572 122.131 148.962 121.843 149.466C121.555 149.958 121.411 150.546 121.411 151.23C121.411 151.902 121.555 152.496 121.843 153.012C122.131 153.516 122.515 153.906 122.995 154.182C123.475 154.458 124.021 154.596 124.633 154.596ZM138.524 155.19V147.972H134.384L134.294 149.808C134.27 150.408 134.228 150.99 134.168 151.554C134.12 152.106 134.036 152.616 133.916 153.084C133.808 153.552 133.646 153.936 133.43 154.236C133.214 154.536 132.926 154.722 132.566 154.794L130.856 154.488C131.228 154.5 131.528 154.38 131.756 154.128C131.984 153.864 132.158 153.504 132.278 153.048C132.41 152.592 132.506 152.076 132.566 151.5C132.626 150.912 132.674 150.306 132.71 149.682L132.854 146.46H140.252V155.19H138.524ZM130.478 158.214V154.488H141.71V158.214H140.09V156H132.116V158.214H130.478ZM142.449 156L146.553 150.672L146.535 151.554L142.629 146.46H144.555L147.543 150.384H146.805L149.793 146.46H151.683L147.723 151.59L147.741 150.672L151.881 156H149.919L146.769 151.824L147.471 151.932L144.375 156H142.449ZM157.469 156.108C156.509 156.108 155.657 155.898 154.913 155.478C154.169 155.058 153.581 154.482 153.149 153.75C152.717 153.006 152.501 152.166 152.501 151.23C152.501 150.282 152.717 149.442 153.149 148.71C153.581 147.978 154.169 147.408 154.913 147C155.657 146.58 156.509 146.37 157.469 146.37C158.417 146.37 159.263 146.58 160.007 147C160.763 147.408 161.351 147.978 161.771 148.71C162.203 149.43 162.419 150.27 162.419 151.23C162.419 152.178 162.203 153.018 161.771 153.75C161.351 154.482 160.763 155.058 160.007 155.478C159.263 155.898 158.417 156.108 157.469 156.108ZM157.469 154.596C158.081 154.596 158.627 154.458 159.107 154.182C159.599 153.906 159.983 153.516 160.259 153.012C160.535 152.496 160.673 151.902 160.673 151.23C160.673 150.546 160.535 149.958 160.259 149.466C159.983 148.962 159.599 148.572 159.107 148.296C158.627 148.02 158.081 147.882 157.469 147.882C156.857 147.882 156.311 148.02 155.831 148.296C155.351 148.572 154.967 148.962 154.679 149.466C154.391 149.958 154.247 150.546 154.247 151.23C154.247 151.902 154.391 152.496 154.679 153.012C154.967 153.516 155.351 153.906 155.831 154.182C156.311 154.458 156.857 154.596 157.469 154.596ZM171.36 155.19V147.972H167.22L167.13 149.808C167.106 150.408 167.064 150.99 167.004 151.554C166.956 152.106 166.872 152.616 166.752 153.084C166.644 153.552 166.482 153.936 166.266 154.236C166.05 154.536 165.762 154.722 165.402 154.794L163.692 154.488C164.064 154.5 164.364 154.38 164.592 154.128C164.82 153.864 164.994 153.504 165.114 153.048C165.246 152.592 165.342 152.076 165.402 151.5C165.462 150.912 165.51 150.306 165.546 149.682L165.69 146.46H173.088V155.19H171.36ZM163.314 158.214V154.488H174.546V158.214H172.926V156H164.952V158.214H163.314ZM188.543 156L184.853 151.356L186.275 150.492L190.577 156H188.543ZM181.631 156V146.46H183.359V156H181.631ZM182.837 151.968V150.492H185.987V151.968H182.837ZM186.419 151.428L184.817 151.212L188.471 146.46H190.325L186.419 151.428ZM199.113 156V147.522L199.545 147.972H195.621V146.46H204.333V147.972H200.427L200.841 147.522V156H199.113ZM209.926 156.108C208.906 156.108 208.006 155.898 207.226 155.478C206.458 155.058 205.858 154.482 205.426 153.75C205.006 153.018 204.796 152.178 204.796 151.23C204.796 150.282 205 149.442 205.408 148.71C205.828 147.978 206.398 147.408 207.118 147C207.85 146.58 208.672 146.37 209.584 146.37C210.508 146.37 211.324 146.574 212.032 146.982C212.74 147.39 213.292 147.966 213.688 148.71C214.096 149.442 214.3 150.3 214.3 151.284C214.3 151.356 214.294 151.44 214.282 151.536C214.282 151.632 214.276 151.722 214.264 151.806H206.146V150.564H213.364L212.662 150.996C212.674 150.384 212.548 149.838 212.284 149.358C212.02 148.878 211.654 148.506 211.186 148.242C210.73 147.966 210.196 147.828 209.584 147.828C208.984 147.828 208.45 147.966 207.982 148.242C207.514 148.506 207.148 148.884 206.884 149.376C206.62 149.856 206.488 150.408 206.488 151.032V151.32C206.488 151.956 206.632 152.526 206.92 153.03C207.22 153.522 207.634 153.906 208.162 154.182C208.69 154.458 209.296 154.596 209.98 154.596C210.544 154.596 211.054 154.5 211.51 154.308C211.978 154.116 212.386 153.828 212.734 153.444L213.688 154.56C213.256 155.064 212.716 155.448 212.068 155.712C211.432 155.976 210.718 156.108 209.926 156.108ZM221.067 156.108C220.107 156.108 219.255 155.898 218.511 155.478C217.767 155.058 217.179 154.482 216.747 153.75C216.315 153.006 216.099 152.166 216.099 151.23C216.099 150.282 216.315 149.442 216.747 148.71C217.179 147.978 217.767 147.408 218.511 147C219.255 146.58 220.107 146.37 221.067 146.37C222.015 146.37 222.861 146.58 223.605 147C224.361 147.408 224.949 147.978 225.369 148.71C225.801 149.43 226.017 150.27 226.017 151.23C226.017 152.178 225.801 153.018 225.369 153.75C224.949 154.482 224.361 155.058 223.605 155.478C222.861 155.898 222.015 156.108 221.067 156.108ZM221.067 154.596C221.679 154.596 222.225 154.458 222.705 154.182C223.197 153.906 223.581 153.516 223.857 153.012C224.133 152.496 224.271 151.902 224.271 151.23C224.271 150.546 224.133 149.958 223.857 149.466C223.581 148.962 223.197 148.572 222.705 148.296C222.225 148.02 221.679 147.882 221.067 147.882C220.455 147.882 219.909 148.02 219.429 148.296C218.949 148.572 218.565 148.962 218.277 149.466C217.989 149.958 217.845 150.546 217.845 151.23C217.845 151.902 217.989 152.496 218.277 153.012C218.565 153.516 218.949 153.906 219.429 154.182C219.909 154.458 220.455 154.596 221.067 154.596ZM233.57 156.108C232.778 156.108 232.052 155.928 231.392 155.568C230.744 155.196 230.222 154.65 229.826 153.93C229.442 153.21 229.25 152.31 229.25 151.23C229.25 150.15 229.436 149.25 229.808 148.53C230.192 147.81 230.708 147.27 231.356 146.91C232.016 146.55 232.754 146.37 233.57 146.37C234.506 146.37 235.334 146.574 236.054 146.982C236.774 147.39 237.344 147.96 237.764 148.692C238.184 149.412 238.394 150.258 238.394 151.23C238.394 152.202 238.184 153.054 237.764 153.786C237.344 154.518 236.774 155.088 236.054 155.496C235.334 155.904 234.506 156.108 233.57 156.108ZM228.512 159.492V146.46H230.168V149.034L230.06 151.248L230.24 153.462V159.492H228.512ZM233.426 154.596C234.038 154.596 234.584 154.458 235.064 154.182C235.556 153.906 235.94 153.516 236.216 153.012C236.504 152.496 236.648 151.902 236.648 151.23C236.648 150.546 236.504 149.958 236.216 149.466C235.94 148.962 235.556 148.572 235.064 148.296C234.584 148.02 234.038 147.882 233.426 147.882C232.826 147.882 232.28 148.02 231.788 148.296C231.308 148.572 230.924 148.962 230.636 149.466C230.36 149.958 230.222 150.546 230.222 151.23C230.222 151.902 230.36 152.496 230.636 153.012C230.924 153.516 231.308 153.906 231.788 154.182C232.28 154.458 232.826 154.596 233.426 154.596ZM245.152 156.108C244.132 156.108 243.232 155.898 242.452 155.478C241.684 155.058 241.084 154.482 240.652 153.75C240.232 153.018 240.022 152.178 240.022 151.23C240.022 150.282 240.226 149.442 240.634 148.71C241.054 147.978 241.624 147.408 242.344 147C243.076 146.58 243.898 146.37 244.81 146.37C245.734 146.37 246.55 146.574 247.258 146.982C247.966 147.39 248.518 147.966 248.914 148.71C249.322 149.442 249.526 150.3 249.526 151.284C249.526 151.356 249.52 151.44 249.508 151.536C249.508 151.632 249.502 151.722 249.49 151.806H241.372V150.564H248.59L247.888 150.996C247.9 150.384 247.774 149.838 247.51 149.358C247.246 148.878 246.88 148.506 246.412 148.242C245.956 147.966 245.422 147.828 244.81 147.828C244.21 147.828 243.676 147.966 243.208 148.242C242.74 148.506 242.374 148.884 242.11 149.376C241.846 149.856 241.714 150.408 241.714 151.032V151.32C241.714 151.956 241.858 152.526 242.146 153.03C242.446 153.522 242.86 153.906 243.388 154.182C243.916 154.458 244.522 154.596 245.206 154.596C245.77 154.596 246.28 154.5 246.736 154.308C247.204 154.116 247.612 153.828 247.96 153.444L248.914 154.56C248.482 155.064 247.942 155.448 247.294 155.712C246.658 155.976 245.944 156.108 245.152 156.108ZM253.693 156V147.522L254.125 147.972H250.201V146.46H258.913V147.972H255.007L255.421 147.522V156H253.693ZM260.68 156V146.46H262.408V153.408L268.258 146.46H269.824V156H268.096V149.052L262.264 156H260.68ZM279.19 152.094C278.686 152.334 278.164 152.526 277.624 152.67C277.096 152.802 276.55 152.868 275.986 152.868C274.834 152.868 273.922 152.598 273.25 152.058C272.59 151.518 272.26 150.684 272.26 149.556V146.46H273.988V149.448C273.988 150.132 274.198 150.636 274.618 150.96C275.05 151.284 275.626 151.446 276.346 151.446C276.802 151.446 277.27 151.386 277.75 151.266C278.242 151.146 278.722 150.978 279.19 150.762V152.094ZM279.064 156V146.46H280.792V156H279.064ZM288.395 156.108C287.375 156.108 286.475 155.898 285.695 155.478C284.927 155.058 284.327 154.482 283.895 153.75C283.475 153.018 283.265 152.178 283.265 151.23C283.265 150.282 283.469 149.442 283.877 148.71C284.297 147.978 284.867 147.408 285.587 147C286.319 146.58 287.141 146.37 288.053 146.37C288.977 146.37 289.793 146.574 290.501 146.982C291.209 147.39 291.761 147.966 292.157 148.71C292.565 149.442 292.769 150.3 292.769 151.284C292.769 151.356 292.763 151.44 292.751 151.536C292.751 151.632 292.745 151.722 292.733 151.806H284.615V150.564H291.833L291.131 150.996C291.143 150.384 291.017 149.838 290.753 149.358C290.489 148.878 290.123 148.506 289.655 148.242C289.199 147.966 288.665 147.828 288.053 147.828C287.453 147.828 286.919 147.966 286.451 148.242C285.983 148.506 285.617 148.884 285.353 149.376C285.089 149.856 284.957 150.408 284.957 151.032V151.32C284.957 151.956 285.101 152.526 285.389 153.03C285.689 153.522 286.103 153.906 286.631 154.182C287.159 154.458 287.765 154.596 288.449 154.596C289.013 154.596 289.523 154.5 289.979 154.308C290.447 154.116 290.855 153.828 291.203 153.444L292.157 154.56C291.725 155.064 291.185 155.448 290.537 155.712C289.901 155.976 289.187 156.108 288.395 156.108ZM299.607 156.108C298.635 156.108 297.765 155.898 296.997 155.478C296.241 155.058 295.647 154.482 295.215 153.75C294.783 153.018 294.567 152.178 294.567 151.23C294.567 150.282 294.783 149.442 295.215 148.71C295.647 147.978 296.241 147.408 296.997 147C297.765 146.58 298.635 146.37 299.607 146.37C300.471 146.37 301.239 146.544 301.911 146.892C302.595 147.228 303.123 147.732 303.495 148.404L302.181 149.25C301.869 148.782 301.485 148.44 301.029 148.224C300.585 147.996 300.105 147.882 299.589 147.882C298.965 147.882 298.407 148.02 297.915 148.296C297.423 148.572 297.033 148.962 296.745 149.466C296.457 149.958 296.313 150.546 296.313 151.23C296.313 151.914 296.457 152.508 296.745 153.012C297.033 153.516 297.423 153.906 297.915 154.182C298.407 154.458 298.965 154.596 299.589 154.596C300.105 154.596 300.585 154.488 301.029 154.272C301.485 154.044 301.869 153.696 302.181 153.228L303.495 154.056C303.123 154.716 302.595 155.226 301.911 155.586C301.239 155.934 300.471 156.108 299.607 156.108ZM312.645 156L308.955 151.356L310.377 150.492L314.679 156H312.645ZM305.733 156V146.46H307.461V156H305.733ZM306.939 151.968V150.492H310.089V151.968H306.939ZM310.521 151.428L308.919 151.212L312.573 146.46H314.427L310.521 151.428ZM320.26 156.108C319.3 156.108 318.448 155.898 317.704 155.478C316.96 155.058 316.372 154.482 315.94 153.75C315.508 153.006 315.292 152.166 315.292 151.23C315.292 150.282 315.508 149.442 315.94 148.71C316.372 147.978 316.96 147.408 317.704 147C318.448 146.58 319.3 146.37 320.26 146.37C321.208 146.37 322.054 146.58 322.798 147C323.554 147.408 324.142 147.978 324.562 148.71C324.994 149.43 325.21 150.27 325.21 151.23C325.21 152.178 324.994 153.018 324.562 153.75C324.142 154.482 323.554 155.058 322.798 155.478C322.054 155.898 321.208 156.108 320.26 156.108ZM320.26 154.596C320.872 154.596 321.418 154.458 321.898 154.182C322.39 153.906 322.774 153.516 323.05 153.012C323.326 152.496 323.464 151.902 323.464 151.23C323.464 150.546 323.326 149.958 323.05 149.466C322.774 148.962 322.39 148.572 321.898 148.296C321.418 148.02 320.872 147.882 320.26 147.882C319.648 147.882 319.102 148.02 318.622 148.296C318.142 148.572 317.758 148.962 317.47 149.466C317.182 149.958 317.038 150.546 317.038 151.23C317.038 151.902 317.182 152.496 317.47 153.012C317.758 153.516 318.142 153.906 318.622 154.182C319.102 154.458 319.648 154.596 320.26 154.596ZM327.705 156V146.46H329.433V153.408L335.283 146.46H336.849V156H335.121V149.052L329.289 156H327.705ZM332.169 145.218C331.293 145.218 330.603 145.008 330.099 144.588C329.607 144.156 329.355 143.538 329.343 142.734H330.513C330.525 143.19 330.675 143.55 330.963 143.814C331.263 144.078 331.659 144.21 332.151 144.21C332.643 144.21 333.039 144.078 333.339 143.814C333.639 143.55 333.795 143.19 333.807 142.734H335.013C335.001 143.538 334.743 144.156 334.239 144.588C333.735 145.008 333.045 145.218 332.169 145.218ZM41.674 178V168.46H43.402V175.408L49.252 168.46H50.818V178H49.09V171.052L43.258 178H41.674ZM59.006 178V168.46H67.844V178H66.116V169.54L66.53 169.972H60.32L60.734 169.54V178H59.006ZM76.2457 178.108C75.4537 178.108 74.7277 177.928 74.0677 177.568C73.4197 177.196 72.8977 176.65 72.5017 175.93C72.1177 175.21 71.9257 174.31 71.9257 173.23C71.9257 172.15 72.1117 171.25 72.4837 170.53C72.8677 169.81 73.3837 169.27 74.0317 168.91C74.6917 168.55 75.4297 168.37 76.2457 168.37C77.1817 168.37 78.0097 168.574 78.7297 168.982C79.4497 169.39 80.0197 169.96 80.4397 170.692C80.8597 171.412 81.0697 172.258 81.0697 173.23C81.0697 174.202 80.8597 175.054 80.4397 175.786C80.0197 176.518 79.4497 177.088 78.7297 177.496C78.0097 177.904 77.1817 178.108 76.2457 178.108ZM71.1877 181.492V168.46H72.8437V171.034L72.7357 173.248L72.9157 175.462V181.492H71.1877ZM76.1017 176.596C76.7137 176.596 77.2597 176.458 77.7397 176.182C78.2317 175.906 78.6157 175.516 78.8917 175.012C79.1797 174.496 79.3237 173.902 79.3237 173.23C79.3237 172.546 79.1797 171.958 78.8917 171.466C78.6157 170.962 78.2317 170.572 77.7397 170.296C77.2597 170.02 76.7137 169.882 76.1017 169.882C75.5017 169.882 74.9557 170.02 74.4637 170.296C73.9837 170.572 73.5997 170.962 73.3117 171.466C73.0357 171.958 72.8977 172.546 72.8977 173.23C72.8977 173.902 73.0357 174.496 73.3117 175.012C73.5997 175.516 73.9837 175.906 74.4637 176.182C74.9557 176.458 75.5017 176.596 76.1017 176.596ZM89.3424 178V175.984L89.2524 175.606V172.168C89.2524 171.436 89.0364 170.872 88.6044 170.476C88.1844 170.068 87.5484 169.864 86.6964 169.864C86.1324 169.864 85.5804 169.96 85.0404 170.152C84.5004 170.332 84.0444 170.578 83.6724 170.89L82.9524 169.594C83.4444 169.198 84.0324 168.898 84.7164 168.694C85.4124 168.478 86.1384 168.37 86.8944 168.37C88.2024 168.37 89.2104 168.688 89.9184 169.324C90.6264 169.96 90.9804 170.932 90.9804 172.24V178H89.3424ZM86.2104 178.108C85.5024 178.108 84.8784 177.988 84.3384 177.748C83.8104 177.508 83.4024 177.178 83.1144 176.758C82.8264 176.326 82.6824 175.84 82.6824 175.3C82.6824 174.784 82.8024 174.316 83.0424 173.896C83.2944 173.476 83.6964 173.14 84.2484 172.888C84.8124 172.636 85.5684 172.51 86.5164 172.51H89.5404V173.752H86.5884C85.7244 173.752 85.1424 173.896 84.8424 174.184C84.5424 174.472 84.3924 174.82 84.3924 175.228C84.3924 175.696 84.5784 176.074 84.9504 176.362C85.3224 176.638 85.8384 176.776 86.4984 176.776C87.1464 176.776 87.7104 176.632 88.1904 176.344C88.6824 176.056 89.0364 175.636 89.2524 175.084L89.5944 176.272C89.3664 176.836 88.9644 177.286 88.3884 177.622C87.8124 177.946 87.0864 178.108 86.2104 178.108ZM101.004 178L97.314 173.356L98.736 172.492L103.038 178H101.004ZM94.092 178V168.46H95.82V178H94.092ZM95.298 173.968V172.492H98.448V173.968H95.298ZM98.88 173.428L97.278 173.212L100.932 168.46H102.786L98.88 173.428ZM106.582 178V169.522L107.014 169.972H103.09V168.46H111.802V169.972H107.896L108.31 169.522V178H106.582ZM113.569 178V168.46H115.297V175.408L121.147 168.46H122.713V178H120.985V171.052L115.153 178H113.569ZM132.079 174.094C131.575 174.334 131.053 174.526 130.513 174.67C129.985 174.802 129.439 174.868 128.875 174.868C127.723 174.868 126.811 174.598 126.139 174.058C125.479 173.518 125.149 172.684 125.149 171.556V168.46H126.877V171.448C126.877 172.132 127.087 172.636 127.507 172.96C127.939 173.284 128.515 173.446 129.235 173.446C129.691 173.446 130.159 173.386 130.639 173.266C131.131 173.146 131.611 172.978 132.079 172.762V174.094ZM131.953 178V168.46H133.681V178H131.953ZM141.283 178.108C140.263 178.108 139.363 177.898 138.583 177.478C137.815 177.058 137.215 176.482 136.783 175.75C136.363 175.018 136.153 174.178 136.153 173.23C136.153 172.282 136.357 171.442 136.765 170.71C137.185 169.978 137.755 169.408 138.475 169C139.207 168.58 140.029 168.37 140.941 168.37C141.865 168.37 142.681 168.574 143.389 168.982C144.097 169.39 144.649 169.966 145.045 170.71C145.453 171.442 145.657 172.3 145.657 173.284C145.657 173.356 145.651 173.44 145.639 173.536C145.639 173.632 145.633 173.722 145.621 173.806H137.503V172.564H144.721L144.019 172.996C144.031 172.384 143.905 171.838 143.641 171.358C143.377 170.878 143.011 170.506 142.543 170.242C142.087 169.966 141.553 169.828 140.941 169.828C140.341 169.828 139.807 169.966 139.339 170.242C138.871 170.506 138.505 170.884 138.241 171.376C137.977 171.856 137.845 172.408 137.845 173.032V173.32C137.845 173.956 137.989 174.526 138.277 175.03C138.577 175.522 138.991 175.906 139.519 176.182C140.047 176.458 140.653 176.596 141.337 176.596C141.901 176.596 142.411 176.5 142.867 176.308C143.335 176.116 143.743 175.828 144.091 175.444L145.045 176.56C144.613 177.064 144.073 177.448 143.425 177.712C142.789 177.976 142.075 178.108 141.283 178.108ZM152.496 178.108C151.524 178.108 150.654 177.898 149.886 177.478C149.13 177.058 148.536 176.482 148.104 175.75C147.672 175.018 147.456 174.178 147.456 173.23C147.456 172.282 147.672 171.442 148.104 170.71C148.536 169.978 149.13 169.408 149.886 169C150.654 168.58 151.524 168.37 152.496 168.37C153.36 168.37 154.128 168.544 154.8 168.892C155.484 169.228 156.012 169.732 156.384 170.404L155.07 171.25C154.758 170.782 154.374 170.44 153.918 170.224C153.474 169.996 152.994 169.882 152.478 169.882C151.854 169.882 151.296 170.02 150.804 170.296C150.312 170.572 149.922 170.962 149.634 171.466C149.346 171.958 149.202 172.546 149.202 173.23C149.202 173.914 149.346 174.508 149.634 175.012C149.922 175.516 150.312 175.906 150.804 176.182C151.296 176.458 151.854 176.596 152.478 176.596C152.994 176.596 153.474 176.488 153.918 176.272C154.374 176.044 154.758 175.696 155.07 175.228L156.384 176.056C156.012 176.716 155.484 177.226 154.8 177.586C154.128 177.934 153.36 178.108 152.496 178.108ZM165.533 178L161.843 173.356L163.265 172.492L167.567 178H165.533ZM158.621 178V168.46H160.349V178H158.621ZM159.827 173.968V172.492H162.977V173.968H159.827ZM163.409 173.428L161.807 173.212L165.461 168.46H167.315L163.409 173.428ZM173.149 178.108C172.189 178.108 171.337 177.898 170.593 177.478C169.849 177.058 169.261 176.482 168.829 175.75C168.397 175.006 168.181 174.166 168.181 173.23C168.181 172.282 168.397 171.442 168.829 170.71C169.261 169.978 169.849 169.408 170.593 169C171.337 168.58 172.189 168.37 173.149 168.37C174.097 168.37 174.943 168.58 175.687 169C176.443 169.408 177.031 169.978 177.451 170.71C177.883 171.43 178.099 172.27 178.099 173.23C178.099 174.178 177.883 175.018 177.451 175.75C177.031 176.482 176.443 177.058 175.687 177.478C174.943 177.898 174.097 178.108 173.149 178.108ZM173.149 176.596C173.761 176.596 174.307 176.458 174.787 176.182C175.279 175.906 175.663 175.516 175.939 175.012C176.215 174.496 176.353 173.902 176.353 173.23C176.353 172.546 176.215 171.958 175.939 171.466C175.663 170.962 175.279 170.572 174.787 170.296C174.307 170.02 173.761 169.882 173.149 169.882C172.537 169.882 171.991 170.02 171.511 170.296C171.031 170.572 170.647 170.962 170.359 171.466C170.071 171.958 169.927 172.546 169.927 173.23C169.927 173.902 170.071 174.496 170.359 175.012C170.647 175.516 171.031 175.906 171.511 176.182C171.991 176.458 172.537 176.596 173.149 176.596ZM180.594 178V168.46H182.322V175.408L188.172 168.46H189.738V178H188.01V171.052L182.178 178H180.594ZM185.058 167.218C184.182 167.218 183.492 167.008 182.988 166.588C182.496 166.156 182.244 165.538 182.232 164.734H183.402C183.414 165.19 183.564 165.55 183.852 165.814C184.152 166.078 184.548 166.21 185.04 166.21C185.532 166.21 185.928 166.078 186.228 165.814C186.528 165.55 186.684 165.19 186.696 164.734H187.902C187.89 165.538 187.632 166.156 187.128 166.588C186.624 167.008 185.934 167.218 185.058 167.218ZM203.938 174.094C203.434 174.334 202.912 174.526 202.372 174.67C201.844 174.802 201.298 174.868 200.734 174.868C199.582 174.868 198.67 174.598 197.998 174.058C197.338 173.518 197.008 172.684 197.008 171.556V168.46H198.736V171.448C198.736 172.132 198.946 172.636 199.366 172.96C199.798 173.284 200.374 173.446 201.094 173.446C201.55 173.446 202.018 173.386 202.498 173.266C202.99 173.146 203.47 172.978 203.938 172.762V174.094ZM203.812 178V168.46H205.54V178H203.812ZM214.745 178V175.984L214.655 175.606V172.168C214.655 171.436 214.439 170.872 214.007 170.476C213.587 170.068 212.951 169.864 212.099 169.864C211.535 169.864 210.983 169.96 210.443 170.152C209.903 170.332 209.447 170.578 209.075 170.89L208.355 169.594C208.847 169.198 209.435 168.898 210.119 168.694C210.815 168.478 211.541 168.37 212.297 168.37C213.605 168.37 214.613 168.688 215.321 169.324C216.029 169.96 216.383 170.932 216.383 172.24V178H214.745ZM211.613 178.108C210.905 178.108 210.281 177.988 209.741 177.748C209.213 177.508 208.805 177.178 208.517 176.758C208.229 176.326 208.085 175.84 208.085 175.3C208.085 174.784 208.205 174.316 208.445 173.896C208.697 173.476 209.099 173.14 209.651 172.888C210.215 172.636 210.971 172.51 211.919 172.51H214.943V173.752H211.991C211.127 173.752 210.545 173.896 210.245 174.184C209.945 174.472 209.795 174.82 209.795 175.228C209.795 175.696 209.981 176.074 210.353 176.362C210.725 176.638 211.241 176.776 211.901 176.776C212.549 176.776 213.113 176.632 213.593 176.344C214.085 176.056 214.439 175.636 214.655 175.084L214.997 176.272C214.769 176.836 214.367 177.286 213.791 177.622C213.215 177.946 212.489 178.108 211.613 178.108ZM223.652 178.108C222.68 178.108 221.81 177.898 221.042 177.478C220.286 177.058 219.692 176.482 219.26 175.75C218.828 175.018 218.612 174.178 218.612 173.23C218.612 172.282 218.828 171.442 219.26 170.71C219.692 169.978 220.286 169.408 221.042 169C221.81 168.58 222.68 168.37 223.652 168.37C224.516 168.37 225.284 168.544 225.956 168.892C226.64 169.228 227.168 169.732 227.54 170.404L226.226 171.25C225.914 170.782 225.53 170.44 225.074 170.224C224.63 169.996 224.15 169.882 223.634 169.882C223.01 169.882 222.452 170.02 221.96 170.296C221.468 170.572 221.078 170.962 220.79 171.466C220.502 171.958 220.358 172.546 220.358 173.23C220.358 173.914 220.502 174.508 220.79 175.012C221.078 175.516 221.468 175.906 221.96 176.182C222.452 176.458 223.01 176.596 223.634 176.596C224.15 176.596 224.63 176.488 225.074 176.272C225.53 176.044 225.914 175.696 226.226 175.228L227.54 176.056C227.168 176.716 226.64 177.226 225.956 177.586C225.284 177.934 224.516 178.108 223.652 178.108ZM231.544 178V169.522L231.976 169.972H228.052V168.46H236.764V169.972H232.858L233.272 169.522V178H231.544ZM238.531 178V168.46H240.259V175.408L246.109 168.46H247.675V178H245.947V171.052L240.115 178H238.531ZM250.309 180.664L251.209 177.028L251.443 178.072C251.095 178.072 250.801 177.964 250.561 177.748C250.333 177.532 250.219 177.238 250.219 176.866C250.219 176.506 250.333 176.212 250.561 175.984C250.801 175.756 251.089 175.642 251.425 175.642C251.773 175.642 252.055 175.762 252.271 176.002C252.487 176.23 252.595 176.518 252.595 176.866C252.595 176.986 252.583 177.106 252.559 177.226C252.547 177.334 252.517 177.466 252.469 177.622C252.433 177.766 252.373 177.946 252.289 178.162L251.443 180.664H250.309ZM259.942 178V168.46H261.67V172.51H267.106V168.46H268.834V178H267.106V174.004H261.67V178H259.942ZM276.442 178.108C275.422 178.108 274.522 177.898 273.742 177.478C272.974 177.058 272.374 176.482 271.942 175.75C271.522 175.018 271.312 174.178 271.312 173.23C271.312 172.282 271.516 171.442 271.924 170.71C272.344 169.978 272.914 169.408 273.634 169C274.366 168.58 275.188 168.37 276.1 168.37C277.024 168.37 277.84 168.574 278.548 168.982C279.256 169.39 279.808 169.966 280.204 170.71C280.612 171.442 280.816 172.3 280.816 173.284C280.816 173.356 280.81 173.44 280.798 173.536C280.798 173.632 280.792 173.722 280.78 173.806H272.662V172.564H279.88L279.178 172.996C279.19 172.384 279.064 171.838 278.8 171.358C278.536 170.878 278.17 170.506 277.702 170.242C277.246 169.966 276.712 169.828 276.1 169.828C275.5 169.828 274.966 169.966 274.498 170.242C274.03 170.506 273.664 170.884 273.4 171.376C273.136 171.856 273.004 172.408 273.004 173.032V173.32C273.004 173.956 273.148 174.526 273.436 175.03C273.736 175.522 274.15 175.906 274.678 176.182C275.206 176.458 275.812 176.596 276.496 176.596C277.06 176.596 277.57 176.5 278.026 176.308C278.494 176.116 278.902 175.828 279.25 175.444L280.204 176.56C279.772 177.064 279.232 177.448 278.584 177.712C277.948 177.976 277.234 178.108 276.442 178.108ZM41.674 200V190.46H43.402V197.408L49.252 190.46H50.818V200H49.09V193.052L43.258 200H41.674ZM54.172 200V190.46H55.954L60.058 197.516H59.338L63.55 190.46H65.17V200H63.604V192.404L63.892 192.566L60.04 198.92H59.284L55.414 192.44L55.756 192.368V200H54.172ZM72.7814 200.108C71.7614 200.108 70.8614 199.898 70.0814 199.478C69.3134 199.058 68.7134 198.482 68.2814 197.75C67.8614 197.018 67.6514 196.178 67.6514 195.23C67.6514 194.282 67.8554 193.442 68.2634 192.71C68.6834 191.978 69.2534 191.408 69.9734 191C70.7054 190.58 71.5274 190.37 72.4394 190.37C73.3634 190.37 74.1794 190.574 74.8874 190.982C75.5954 191.39 76.1474 191.966 76.5434 192.71C76.9514 193.442 77.1554 194.3 77.1554 195.284C77.1554 195.356 77.1494 195.44 77.1374 195.536C77.1374 195.632 77.1314 195.722 77.1194 195.806H69.0014V194.564H76.2194L75.5174 194.996C75.5294 194.384 75.4034 193.838 75.1394 193.358C74.8754 192.878 74.5094 192.506 74.0414 192.242C73.5854 191.966 73.0514 191.828 72.4394 191.828C71.8394 191.828 71.3054 191.966 70.8374 192.242C70.3694 192.506 70.0034 192.884 69.7394 193.376C69.4754 193.856 69.3434 194.408 69.3434 195.032V195.32C69.3434 195.956 69.4874 196.526 69.7754 197.03C70.0754 197.522 70.4894 197.906 71.0174 198.182C71.5454 198.458 72.1514 198.596 72.8354 198.596C73.3994 198.596 73.9094 198.5 74.3654 198.308C74.8334 198.116 75.2414 197.828 75.5894 197.444L76.5434 198.56C76.1114 199.064 75.5714 199.448 74.9234 199.712C74.2874 199.976 73.5734 200.108 72.7814 200.108ZM79.8361 200V190.46H81.5641V194.366H84.4441V195.968H81.5641V200H79.8361ZM88.2781 200.108C87.3421 200.108 86.5081 199.898 85.7761 199.478C85.0561 199.058 84.4861 198.482 84.0661 197.75C83.6461 197.006 83.4361 196.166 83.4361 195.23C83.4361 194.282 83.6461 193.442 84.0661 192.71C84.4861 191.966 85.0561 191.39 85.7761 190.982C86.5081 190.574 87.3421 190.37 88.2781 190.37C89.2021 190.37 90.0301 190.574 90.7621 190.982C91.4941 191.39 92.0701 191.966 92.4901 192.71C92.9101 193.442 93.1201 194.282 93.1201 195.23C93.1201 196.178 92.9101 197.018 92.4901 197.75C92.0701 198.482 91.4941 199.058 90.7621 199.478C90.0301 199.898 89.2021 200.108 88.2781 200.108ZM88.2781 198.596C88.8781 198.596 89.4121 198.458 89.8801 198.182C90.3481 197.894 90.7201 197.504 90.9961 197.012C91.2721 196.508 91.4101 195.914 91.4101 195.23C91.4101 194.546 91.2721 193.958 90.9961 193.466C90.7201 192.962 90.3481 192.572 89.8801 192.296C89.4121 192.02 88.8781 191.882 88.2781 191.882C87.6901 191.882 87.1561 192.02 86.6761 192.296C86.2081 192.572 85.8361 192.962 85.5601 193.466C85.2841 193.958 85.1461 194.546 85.1461 195.23C85.1461 195.914 85.2841 196.508 85.5601 197.012C85.8361 197.504 86.2081 197.894 86.6761 198.182C87.1561 198.458 87.6901 198.596 88.2781 198.596ZM101.94 198.488L101.544 198.938V190.46H103.272V198.938L102.84 198.488H107.88L107.466 198.938V190.46H109.194V200H95.6037V190.46H97.3317V198.938L96.9177 198.488H101.94ZM108.978 202.034V199.55L109.392 200H107.376V198.488H110.598V202.034H108.978ZM112.549 200V190.46H114.277V197.408L120.127 190.46H121.693V200H119.965V193.052L114.133 200H112.549ZM125.047 200V190.46H126.775V197.408L132.625 190.46H134.191V200H132.463V193.052L126.631 200H125.047ZM129.511 189.218C128.635 189.218 127.945 189.008 127.441 188.588C126.949 188.156 126.697 187.538 126.685 186.734H127.855C127.867 187.19 128.017 187.55 128.305 187.814C128.605 188.078 129.001 188.21 129.493 188.21C129.985 188.21 130.381 188.078 130.681 187.814C130.981 187.55 131.137 187.19 131.149 186.734H132.355C132.343 187.538 132.085 188.156 131.581 188.588C131.077 189.008 130.387 189.218 129.511 189.218ZM148.229 200V197.984L148.139 197.606V194.168C148.139 193.436 147.923 192.872 147.491 192.476C147.071 192.068 146.435 191.864 145.583 191.864C145.019 191.864 144.467 191.96 143.927 192.152C143.387 192.332 142.931 192.578 142.559 192.89L141.839 191.594C142.331 191.198 142.919 190.898 143.603 190.694C144.299 190.478 145.025 190.37 145.781 190.37C147.089 190.37 148.097 190.688 148.805 191.324C149.513 191.96 149.867 192.932 149.867 194.24V200H148.229ZM145.097 200.108C144.389 200.108 143.765 199.988 143.225 199.748C142.697 199.508 142.289 199.178 142.001 198.758C141.713 198.326 141.569 197.84 141.569 197.3C141.569 196.784 141.689 196.316 141.929 195.896C142.181 195.476 142.583 195.14 143.135 194.888C143.699 194.636 144.455 194.51 145.403 194.51H148.427V195.752H145.475C144.611 195.752 144.029 195.896 143.729 196.184C143.429 196.472 143.279 196.82 143.279 197.228C143.279 197.696 143.465 198.074 143.837 198.362C144.209 198.638 144.725 198.776 145.385 198.776C146.033 198.776 146.597 198.632 147.077 198.344C147.569 198.056 147.923 197.636 148.139 197.084L148.481 198.272C148.253 198.836 147.851 199.286 147.275 199.622C146.699 199.946 145.973 200.108 145.097 200.108ZM152.979 200V190.46H154.707V194.51H160.143V190.46H161.871V200H160.143V196.004H154.707V200H152.979ZM171.081 200V197.984L170.991 197.606V194.168C170.991 193.436 170.775 192.872 170.343 192.476C169.923 192.068 169.287 191.864 168.435 191.864C167.871 191.864 167.319 191.96 166.779 192.152C166.239 192.332 165.783 192.578 165.411 192.89L164.691 191.594C165.183 191.198 165.771 190.898 166.455 190.694C167.151 190.478 167.877 190.37 168.633 190.37C169.941 190.37 170.949 190.688 171.657 191.324C172.365 191.96 172.719 192.932 172.719 194.24V200H171.081ZM167.949 200.108C167.241 200.108 166.617 199.988 166.077 199.748C165.549 199.508 165.141 199.178 164.853 198.758C164.565 198.326 164.421 197.84 164.421 197.3C164.421 196.784 164.541 196.316 164.781 195.896C165.033 195.476 165.435 195.14 165.987 194.888C166.551 194.636 167.307 194.51 168.255 194.51H171.279V195.752H168.327C167.463 195.752 166.881 195.896 166.581 196.184C166.281 196.472 166.131 196.82 166.131 197.228C166.131 197.696 166.317 198.074 166.689 198.362C167.061 198.638 167.577 198.776 168.237 198.776C168.885 198.776 169.449 198.632 169.929 198.344C170.421 198.056 170.775 197.636 170.991 197.084L171.333 198.272C171.105 198.836 170.703 199.286 170.127 199.622C169.551 199.946 168.825 200.108 167.949 200.108ZM174.246 199.982L174.354 198.524C174.438 198.536 174.516 198.548 174.588 198.56C174.66 198.572 174.726 198.578 174.786 198.578C175.17 198.578 175.47 198.446 175.686 198.182C175.914 197.918 176.082 197.57 176.19 197.138C176.298 196.694 176.376 196.196 176.424 195.644C176.472 195.092 176.508 194.54 176.532 193.988L176.694 190.46H184.02V200H182.292V191.468L182.706 191.972H177.81L178.206 191.45L178.08 194.096C178.044 194.936 177.978 195.722 177.882 196.454C177.786 197.186 177.636 197.828 177.432 198.38C177.24 198.932 176.97 199.364 176.622 199.676C176.286 199.988 175.848 200.144 175.308 200.144C175.152 200.144 174.984 200.126 174.804 200.09C174.636 200.066 174.45 200.03 174.246 199.982ZM191.448 200.108C190.488 200.108 189.636 199.898 188.892 199.478C188.148 199.058 187.56 198.482 187.128 197.75C186.696 197.006 186.48 196.166 186.48 195.23C186.48 194.282 186.696 193.442 187.128 192.71C187.56 191.978 188.148 191.408 188.892 191C189.636 190.58 190.488 190.37 191.448 190.37C192.396 190.37 193.242 190.58 193.986 191C194.742 191.408 195.33 191.978 195.75 192.71C196.182 193.43 196.398 194.27 196.398 195.23C196.398 196.178 196.182 197.018 195.75 197.75C195.33 198.482 194.742 199.058 193.986 199.478C193.242 199.898 192.396 200.108 191.448 200.108ZM191.448 198.596C192.06 198.596 192.606 198.458 193.086 198.182C193.578 197.906 193.962 197.516 194.238 197.012C194.514 196.496 194.652 195.902 194.652 195.23C194.652 194.546 194.514 193.958 194.238 193.466C193.962 192.962 193.578 192.572 193.086 192.296C192.606 192.02 192.06 191.882 191.448 191.882C190.836 191.882 190.29 192.02 189.81 192.296C189.33 192.572 188.946 192.962 188.658 193.466C188.37 193.958 188.226 194.546 188.226 195.23C188.226 195.902 188.37 196.496 188.658 197.012C188.946 197.516 189.33 197.906 189.81 198.182C190.29 198.458 190.836 198.596 191.448 198.596ZM198.893 200V190.46H205.913V191.972H200.207L200.621 191.576V200H198.893ZM211.346 200.108C210.386 200.108 209.534 199.898 208.79 199.478C208.046 199.058 207.458 198.482 207.026 197.75C206.594 197.006 206.378 196.166 206.378 195.23C206.378 194.282 206.594 193.442 207.026 192.71C207.458 191.978 208.046 191.408 208.79 191C209.534 190.58 210.386 190.37 211.346 190.37C212.294 190.37 213.14 190.58 213.884 191C214.64 191.408 215.228 191.978 215.648 192.71C216.08 193.43 216.296 194.27 216.296 195.23C216.296 196.178 216.08 197.018 215.648 197.75C215.228 198.482 214.64 199.058 213.884 199.478C213.14 199.898 212.294 200.108 211.346 200.108ZM211.346 198.596C211.958 198.596 212.504 198.458 212.984 198.182C213.476 197.906 213.86 197.516 214.136 197.012C214.412 196.496 214.55 195.902 214.55 195.23C214.55 194.546 214.412 193.958 214.136 193.466C213.86 192.962 213.476 192.572 212.984 192.296C212.504 192.02 211.958 191.882 211.346 191.882C210.734 191.882 210.188 192.02 209.708 192.296C209.228 192.572 208.844 192.962 208.556 193.466C208.268 193.958 208.124 194.546 208.124 195.23C208.124 195.902 208.268 196.496 208.556 197.012C208.844 197.516 209.228 197.906 209.708 198.182C210.188 198.458 210.734 198.596 211.346 198.596ZM218.791 200V190.46H223.219C224.335 190.46 225.211 190.676 225.847 191.108C226.495 191.528 226.819 192.128 226.819 192.908C226.819 193.688 226.513 194.294 225.901 194.726C225.301 195.146 224.503 195.356 223.507 195.356L223.777 194.888C224.917 194.888 225.763 195.098 226.315 195.518C226.867 195.938 227.143 196.556 227.143 197.372C227.143 198.2 226.831 198.848 226.207 199.316C225.595 199.772 224.653 200 223.381 200H218.791ZM220.483 198.668H223.255C223.975 198.668 224.515 198.56 224.875 198.344C225.235 198.116 225.415 197.756 225.415 197.264C225.415 196.76 225.247 196.394 224.911 196.166C224.587 195.926 224.071 195.806 223.363 195.806H220.483V198.668ZM220.483 194.564H223.075C223.735 194.564 224.233 194.444 224.569 194.204C224.917 193.952 225.091 193.604 225.091 193.16C225.091 192.704 224.917 192.362 224.569 192.134C224.233 191.906 223.735 191.792 223.075 191.792H220.483V194.564ZM234.682 200V190.46H236.41V194.51H241.846V190.46H243.574V200H241.846V196.004H236.41V200H234.682ZM246.934 200V190.46H248.662V197.408L254.512 190.46H256.078V200H254.35V193.052L248.518 200H246.934ZM264.266 200V190.46H268.694C269.81 190.46 270.686 190.676 271.322 191.108C271.97 191.528 272.294 192.128 272.294 192.908C272.294 193.688 271.988 194.294 271.376 194.726C270.776 195.146 269.978 195.356 268.982 195.356L269.252 194.888C270.392 194.888 271.238 195.098 271.79 195.518C272.342 195.938 272.618 196.556 272.618 197.372C272.618 198.2 272.306 198.848 271.682 199.316C271.07 199.772 270.128 200 268.856 200H264.266ZM265.958 198.668H268.73C269.45 198.668 269.99 198.56 270.35 198.344C270.71 198.116 270.89 197.756 270.89 197.264C270.89 196.76 270.722 196.394 270.386 196.166C270.062 195.926 269.546 195.806 268.838 195.806H265.958V198.668ZM265.958 194.564H268.55C269.21 194.564 269.708 194.444 270.044 194.204C270.392 193.952 270.566 193.604 270.566 193.16C270.566 192.704 270.392 192.362 270.044 192.134C269.708 191.906 269.21 191.792 268.55 191.792H265.958V194.564ZM41.962 222V209.4H46.876C47.98 209.4 48.922 209.574 49.702 209.922C50.482 210.27 51.082 210.774 51.502 211.434C51.922 212.094 52.132 212.88 52.132 213.792C52.132 214.704 51.922 215.49 51.502 216.15C51.082 216.798 50.482 217.302 49.702 217.662C48.922 218.01 47.98 218.184 46.876 218.184H42.952L43.762 217.338V222H41.962ZM43.762 217.518L42.952 216.618H46.822C47.974 216.618 48.844 216.372 49.432 215.88C50.032 215.388 50.332 214.692 50.332 213.792C50.332 212.892 50.032 212.196 49.432 211.704C48.844 211.212 47.974 210.966 46.822 210.966H42.952L43.762 210.066V217.518ZM58.3987 222.108C57.4387 222.108 56.5867 221.898 55.8427 221.478C55.0987 221.058 54.5107 220.482 54.0787 219.75C53.6467 219.006 53.4307 218.166 53.4307 217.23C53.4307 216.282 53.6467 215.442 54.0787 214.71C54.5107 213.978 55.0987 213.408 55.8427 213C56.5867 212.58 57.4387 212.37 58.3987 212.37C59.3467 212.37 60.1927 212.58 60.9367 213C61.6927 213.408 62.2807 213.978 62.7007 214.71C63.1327 215.43 63.3487 216.27 63.3487 217.23C63.3487 218.178 63.1327 219.018 62.7007 219.75C62.2807 220.482 61.6927 221.058 60.9367 221.478C60.1927 221.898 59.3467 222.108 58.3987 222.108ZM58.3987 220.596C59.0107 220.596 59.5567 220.458 60.0367 220.182C60.5287 219.906 60.9127 219.516 61.1887 219.012C61.4647 218.496 61.6027 217.902 61.6027 217.23C61.6027 216.546 61.4647 215.958 61.1887 215.466C60.9127 214.962 60.5287 214.572 60.0367 214.296C59.5567 214.02 59.0107 213.882 58.3987 213.882C57.7867 213.882 57.2407 214.02 56.7607 214.296C56.2807 214.572 55.8967 214.962 55.6087 215.466C55.3207 215.958 55.1767 216.546 55.1767 217.23C55.1767 217.902 55.3207 218.496 55.6087 219.012C55.8967 219.516 56.2807 219.906 56.7607 220.182C57.2407 220.458 57.7867 220.596 58.3987 220.596ZM70.0019 222.108C69.0299 222.108 68.1599 221.898 67.3919 221.478C66.6359 221.058 66.0419 220.482 65.6099 219.75C65.1779 219.018 64.9619 218.178 64.9619 217.23C64.9619 216.282 65.1779 215.442 65.6099 214.71C66.0419 213.978 66.6359 213.408 67.3919 213C68.1599 212.58 69.0299 212.37 70.0019 212.37C70.8659 212.37 71.6339 212.544 72.3059 212.892C72.9899 213.228 73.5179 213.732 73.8899 214.404L72.5759 215.25C72.2639 214.782 71.8799 214.44 71.4239 214.224C70.9799 213.996 70.4999 213.882 69.9839 213.882C69.3599 213.882 68.8019 214.02 68.3099 214.296C67.8179 214.572 67.4279 214.962 67.1399 215.466C66.8519 215.958 66.7079 216.546 66.7079 217.23C66.7079 217.914 66.8519 218.508 67.1399 219.012C67.4279 219.516 67.8179 219.906 68.3099 220.182C68.8019 220.458 69.3599 220.596 69.9839 220.596C70.4999 220.596 70.9799 220.488 71.4239 220.272C71.8799 220.044 72.2639 219.696 72.5759 219.228L73.8899 220.056C73.5179 220.716 72.9899 221.226 72.3059 221.586C71.6339 221.934 70.8659 222.108 70.0019 222.108ZM80.1445 222.108C79.1725 222.108 78.3025 221.898 77.5345 221.478C76.7785 221.058 76.1845 220.482 75.7525 219.75C75.3205 219.018 75.1045 218.178 75.1045 217.23C75.1045 216.282 75.3205 215.442 75.7525 214.71C76.1845 213.978 76.7785 213.408 77.5345 213C78.3025 212.58 79.1725 212.37 80.1445 212.37C81.0085 212.37 81.7765 212.544 82.4485 212.892C83.1325 213.228 83.6605 213.732 84.0325 214.404L82.7185 215.25C82.4065 214.782 82.0225 214.44 81.5665 214.224C81.1225 213.996 80.6425 213.882 80.1265 213.882C79.5025 213.882 78.9445 214.02 78.4525 214.296C77.9605 214.572 77.5705 214.962 77.2825 215.466C76.9945 215.958 76.8505 216.546 76.8505 217.23C76.8505 217.914 76.9945 218.508 77.2825 219.012C77.5705 219.516 77.9605 219.906 78.4525 220.182C78.9445 220.458 79.5025 220.596 80.1265 220.596C80.6425 220.596 81.1225 220.488 81.5665 220.272C82.0225 220.044 82.4065 219.696 82.7185 219.228L84.0325 220.056C83.6605 220.716 83.1325 221.226 82.4485 221.586C81.7765 221.934 81.0085 222.108 80.1445 222.108ZM86.2697 222V212.46H87.9977V219.408L93.8477 212.46H95.4137V222H93.6857V215.052L87.8537 222H86.2697ZM98.7678 222V212.46H100.496V219.408L106.346 212.46H107.912V222H106.184V215.052L100.352 222H98.7678ZM110.546 224.664L111.446 221.028L111.68 222.072C111.332 222.072 111.038 221.964 110.798 221.748C110.57 221.532 110.456 221.238 110.456 220.866C110.456 220.506 110.57 220.212 110.798 219.984C111.038 219.756 111.326 219.642 111.662 219.642C112.01 219.642 112.292 219.762 112.508 220.002C112.724 220.23 112.832 220.518 112.832 220.866C112.832 220.986 112.82 221.106 112.796 221.226C112.784 221.334 112.754 221.466 112.706 221.622C112.67 221.766 112.61 221.946 112.526 222.162L111.68 224.664H110.546ZM120.178 222V212.46H121.906V216.51H127.342V212.46H129.07V222H127.342V218.004H121.906V222H120.178ZM132.43 222V212.46H134.158V219.408L140.008 212.46H141.574V222H139.846V215.052L134.014 222H132.43ZM149.762 222V212.46H154.19C155.306 212.46 156.182 212.676 156.818 213.108C157.466 213.528 157.79 214.128 157.79 214.908C157.79 215.688 157.484 216.294 156.872 216.726C156.272 217.146 155.474 217.356 154.478 217.356L154.748 216.888C155.888 216.888 156.734 217.098 157.286 217.518C157.838 217.938 158.114 218.556 158.114 219.372C158.114 220.2 157.802 220.848 157.178 221.316C156.566 221.772 155.624 222 154.352 222H149.762ZM151.454 220.668H154.226C154.946 220.668 155.486 220.56 155.846 220.344C156.206 220.116 156.386 219.756 156.386 219.264C156.386 218.76 156.218 218.394 155.882 218.166C155.558 217.926 155.042 217.806 154.334 217.806H151.454V220.668ZM151.454 216.564H154.046C154.706 216.564 155.204 216.444 155.54 216.204C155.888 215.952 156.062 215.604 156.062 215.16C156.062 214.704 155.888 214.362 155.54 214.134C155.204 213.906 154.706 213.792 154.046 213.792H151.454V216.564ZM165.941 222V209.4H167.417L173.069 218.922H172.277L177.857 209.4H179.333L179.351 222H177.623L177.605 212.118H178.019L173.051 220.47H172.223L167.219 212.118H167.669V222H165.941ZM182.985 222V212.46H184.713V219.408L190.563 212.46H192.129V222H190.401V215.052L184.569 222H182.985ZM200.541 222.108C199.749 222.108 199.023 221.928 198.363 221.568C197.715 221.196 197.193 220.65 196.797 219.93C196.413 219.21 196.221 218.31 196.221 217.23C196.221 216.15 196.407 215.25 196.779 214.53C197.163 213.81 197.679 213.27 198.327 212.91C198.987 212.55 199.725 212.37 200.541 212.37C201.477 212.37 202.305 212.574 203.025 212.982C203.745 213.39 204.315 213.96 204.735 214.692C205.155 215.412 205.365 216.258 205.365 217.23C205.365 218.202 205.155 219.054 204.735 219.786C204.315 220.518 203.745 221.088 203.025 221.496C202.305 221.904 201.477 222.108 200.541 222.108ZM195.483 225.492V212.46H197.139V215.034L197.031 217.248L197.211 219.462V225.492H195.483ZM200.397 220.596C201.009 220.596 201.555 220.458 202.035 220.182C202.527 219.906 202.911 219.516 203.187 219.012C203.475 218.496 203.619 217.902 203.619 217.23C203.619 216.546 203.475 215.958 203.187 215.466C202.911 214.962 202.527 214.572 202.035 214.296C201.555 214.02 201.009 213.882 200.397 213.882C199.797 213.882 199.251 214.02 198.759 214.296C198.279 214.572 197.895 214.962 197.607 215.466C197.331 215.958 197.193 216.546 197.193 217.23C197.193 217.902 197.331 218.496 197.607 219.012C197.895 219.516 198.279 219.906 198.759 220.182C199.251 220.458 199.797 220.596 200.397 220.596ZM212.123 222.108C211.103 222.108 210.203 221.898 209.423 221.478C208.655 221.058 208.055 220.482 207.623 219.75C207.203 219.018 206.993 218.178 206.993 217.23C206.993 216.282 207.197 215.442 207.605 214.71C208.025 213.978 208.595 213.408 209.315 213C210.047 212.58 210.869 212.37 211.781 212.37C212.705 212.37 213.521 212.574 214.229 212.982C214.937 213.39 215.489 213.966 215.885 214.71C216.293 215.442 216.497 216.3 216.497 217.284C216.497 217.356 216.491 217.44 216.479 217.536C216.479 217.632 216.473 217.722 216.461 217.806H208.343V216.564H215.561L214.859 216.996C214.871 216.384 214.745 215.838 214.481 215.358C214.217 214.878 213.851 214.506 213.383 214.242C212.927 213.966 212.393 213.828 211.781 213.828C211.181 213.828 210.647 213.966 210.179 214.242C209.711 214.506 209.345 214.884 209.081 215.376C208.817 215.856 208.685 216.408 208.685 217.032V217.32C208.685 217.956 208.829 218.526 209.117 219.03C209.417 219.522 209.831 219.906 210.359 220.182C210.887 220.458 211.493 220.596 212.177 220.596C212.741 220.596 213.251 220.5 213.707 220.308C214.175 220.116 214.583 219.828 214.931 219.444L215.885 220.56C215.453 221.064 214.913 221.448 214.265 221.712C213.629 221.976 212.915 222.108 212.123 222.108ZM219.556 222.108C219.22 222.108 218.932 221.994 218.692 221.766C218.452 221.526 218.332 221.226 218.332 220.866C218.332 220.506 218.452 220.212 218.692 219.984C218.932 219.756 219.22 219.642 219.556 219.642C219.88 219.642 220.156 219.756 220.384 219.984C220.624 220.212 220.744 220.506 220.744 220.866C220.744 221.226 220.624 221.526 220.384 221.766C220.156 221.994 219.88 222.108 219.556 222.108Z" fill="#111111"/>
<rect x="1" y="1" width="378" height="350" rx="19" stroke="#E7E7E7" strokeWidth="2"/>
<mask id="path-5-outside-1_2150_4727" maskUnits="userSpaceOnUse" x="290" y="260" width="40" height="94" fill="black">
<rect fill="white" x="290" y="260" width="40" height="94"/>
<path d="M311.218 352V268.8L318.514 276.352H292.274V262.4H327.858V352H311.218Z"/>
</mask>
<path d="M311.218 352H309.218V354H311.218V352ZM311.218 268.8L312.656 267.41L309.218 263.851V268.8H311.218ZM318.514 276.352V278.352H323.227L319.952 274.962L318.514 276.352ZM292.274 276.352H290.274V278.352H292.274V276.352ZM292.274 262.4V260.4H290.274V262.4H292.274ZM327.858 262.4H329.858V260.4H327.858V262.4ZM327.858 352V354H329.858V352H327.858ZM313.218 352V268.8H309.218V352H313.218ZM309.78 270.19L317.076 277.742L319.952 274.962L312.656 267.41L309.78 270.19ZM318.514 274.352H292.274V278.352H318.514V274.352ZM294.274 276.352V262.4H290.274V276.352H294.274ZM292.274 264.4H327.858V260.4H292.274V264.4ZM325.858 262.4V352H329.858V262.4H325.858ZM327.858 350H311.218V354H327.858V350Z" fill="#02A9F7" mask="url(#path-5-outside-1_2150_4727)"/>
<mask id="mask0_2150_4727" style="mask-type:alpha" maskUnits="userSpaceOnUse" x="0" y="0" width="380" height="352">
<rect width="380" height="352" rx="20" fill="white"/>
</mask>
<g mask="url(#mask0_2150_4727)">
<path d="M68.1699 268.642C67.2644 263.074 73.8191 259.29 78.1941 262.855L107.317 287.422C109.289 289.026 112.077 289.242 114.307 287.955L141.842 272.058C146.929 269.12 152.805 274.172 150.596 279.583L141.18 308.524C140.692 309.706 140.59 311.012 140.89 312.254C141.19 313.497 141.876 314.613 142.849 315.441L167.514 341.637C172.07 345.502 168.845 352.942 162.849 352.406L126.485 350.884C125.204 350.77 123.918 351.054 122.804 351.697C121.69 352.34 120.802 353.311 120.26 354.478L103.396 386.731C100.868 392.189 92.8036 391.259 91.7371 385.387L81.3833 350.929C81.1523 349.671 80.529 348.52 79.6028 347.639C78.6766 346.757 77.4952 346.192 76.2279 346.024L46.456 339.708C40.66 338.919 39.2337 331.299 44.3108 328.367L71.845 312.47C72.9312 311.848 73.8028 310.911 74.3446 309.782C74.8864 308.654 75.0727 307.387 74.879 306.15L68.1645 268.646L68.1699 268.642Z" stroke="#E7E7E7" strokeWidth="2" strokeLinecap="round" strokeLinejoin="round"/>
</g>
</g>
<defs>
<clipPath id="clip0_2150_4727">
<rect width="380" height="352" fill="white"/>
</clipPath>
</defs>
</svg>
